<svg width="22" height="22" viewBox="0 0 22 22" fill="none" xmlns="http://www.w3.org/2000/svg">
<path d="M11.0026 0.738281C13.8328 0.738281 14.1859 0.748698 15.2964 0.800781C16.4057 0.852865 17.1609 1.02682 17.8255 1.28516C18.513 1.54974 19.0922 1.90807 19.6714 2.4862C20.201 3.00692 20.6109 3.63681 20.8724 4.33203C21.1297 4.99557 21.3047 5.75182 21.3568 6.8612C21.4057 7.97161 21.4193 8.32474 21.4193 11.1549C21.4193 13.9852 21.4089 14.3383 21.3568 15.4487C21.3047 16.5581 21.1297 17.3133 20.8724 17.9779C20.6116 18.6735 20.2017 19.3035 19.6714 19.8237C19.1505 20.3532 18.5206 20.763 17.8255 21.0247C17.162 21.282 16.4057 21.457 15.2964 21.5091C14.1859 21.5581 13.8328 21.5716 11.0026 21.5716C8.1724 21.5716 7.81927 21.5612 6.70885 21.5091C5.59948 21.457 4.84427 21.282 4.17969 21.0247C3.48419 20.7638 2.8542 20.3539 2.33385 19.8237C1.80407 19.3031 1.3942 18.6731 1.13281 17.9779C0.874479 17.3143 0.700521 16.5581 0.648437 15.4487C0.599479 14.3383 0.585938 13.9852 0.585938 11.1549C0.585938 8.32474 0.596354 7.97161 0.648437 6.8612C0.700521 5.75078 0.874479 4.99661 1.13281 4.33203C1.39348 3.63638 1.80344 3.00632 2.33385 2.4862C2.85434 1.95623 3.4843 1.54633 4.17969 1.28516C4.84427 1.02682 5.59844 0.852865 6.70885 0.800781C7.81927 0.751823 8.1724 0.738281 11.0026 0.738281ZM11.0026 5.94662C9.62127 5.94662 8.29651 6.49535 7.31976 7.4721C6.343 8.44885 5.79427 9.77361 5.79427 11.1549C5.79427 12.5363 6.343 13.861 7.31976 14.8378C8.29651 15.8145 9.62127 16.3633 11.0026 16.3633C12.3839 16.3633 13.7087 15.8145 14.6855 14.8378C15.6622 13.861 16.2109 12.5363 16.2109 11.1549C16.2109 9.77361 15.6622 8.44885 14.6855 7.4721C13.7087 6.49535 12.3839 5.94662 11.0026 5.94662ZM17.7734 5.6862C17.7734 5.34086 17.6363 5.00967 17.3921 4.76549C17.1479 4.5213 16.8167 4.38411 16.4714 4.38411C16.126 4.38411 15.7948 4.5213 15.5506 4.76549C15.3065 5.00967 15.1693 5.34086 15.1693 5.6862C15.1693 6.03153 15.3065 6.36272 15.5506 6.60691C15.7948 6.8511 16.126 6.98828 16.4714 6.98828C16.8167 6.98828 17.1479 6.8511 17.3921 6.60691C17.6363 6.36272 17.7734 6.03153 17.7734 5.6862ZM11.0026 8.02995C11.8314 8.02995 12.6263 8.35919 13.2123 8.94524C13.7984 9.53129 14.1276 10.3261 14.1276 11.1549C14.1276 11.9838 13.7984 12.7786 13.2123 13.3647C12.6263 13.9507 11.8314 14.2799 11.0026 14.2799C10.1738 14.2799 9.37895 13.9507 8.7929 13.3647C8.20684 12.7786 7.8776 11.9838 7.8776 11.1549C7.8776 10.3261 8.20684 9.53129 8.7929 8.94524C9.37895 8.35919 10.1738 8.02995 11.0026 8.02995Z" fill="#FFF2D6"/>
</svg>
