<svg width="21" height="20" viewBox="0 0 21 20" fill="none" xmlns="http://www.w3.org/2000/svg">
<path d="M4.72917 2.86367C4.72889 3.41621 4.50913 3.946 4.11824 4.33651C3.72734 4.72701 3.19733 4.94624 2.64479 4.94596C2.09226 4.94569 1.56246 4.72593 1.17196 4.33503C0.781452 3.94414 0.562224 3.41412 0.5625 2.86159C0.562777 2.30905 0.782535 1.77926 1.17343 1.38875C1.56433 0.998249 2.09434 0.779021 2.64688 0.779297C3.19941 0.779573 3.7292 0.999332 4.11971 1.39023C4.51022 1.78112 4.72944 2.31114 4.72917 2.86367ZM4.79167 6.48867H0.625V19.5303H4.79167V6.48867ZM11.375 6.48867H7.22917V19.5303H11.3333V12.6866C11.3333 8.87409 16.3021 8.51992 16.3021 12.6866V19.5303H20.4167V11.2699C20.4167 4.84284 13.0625 5.08242 11.3333 8.23867L11.375 6.48867Z" fill="#FFF2D6"/>
</svg>
