<svg width="22" height="18" viewBox="0 0 22 18" fill="none" xmlns="http://www.w3.org/2000/svg">
<path d="M21.5839 2.54747C20.7886 2.89924 19.9453 3.13026 19.0818 3.23289C19.9919 2.68855 20.6731 1.83186 20.9984 0.822474C20.1443 1.33081 19.2078 1.68706 18.2318 1.87977C17.5762 1.17829 16.7071 0.713061 15.7599 0.556416C14.8126 0.399772 13.84 0.560485 12.9935 1.01357C12.147 1.46666 11.4738 2.18673 11.0788 3.06184C10.6837 3.93695 10.5888 4.91808 10.8089 5.85268C9.07668 5.76586 7.38212 5.31573 5.8352 4.5315C4.28827 3.74727 2.92357 2.64648 1.82969 1.3006C1.44249 1.96565 1.23902 2.72167 1.2401 3.49122C1.2401 5.00164 2.00885 6.33602 3.1776 7.11727C2.48595 7.09549 1.80951 6.9087 1.20469 6.57247V6.62664C1.2049 7.63258 1.55299 8.60749 2.18995 9.38608C2.8269 10.1647 3.71352 10.699 4.69948 10.8985C4.05741 11.0725 3.38417 11.0982 2.73073 10.9735C3.00872 11.8394 3.55053 12.5966 4.2803 13.1393C5.01008 13.6819 5.89128 13.9827 6.80052 13.9996C5.89686 14.7093 4.86216 15.2339 3.75561 15.5435C2.64905 15.8531 1.49232 15.9415 0.351562 15.8037C2.34291 17.0844 4.66104 17.7643 7.02865 17.7621C15.0422 17.7621 19.4245 11.1235 19.4245 5.36622C19.4245 5.17872 19.4193 4.98914 19.4109 4.80372C20.2639 4.18723 21.0001 3.42354 21.5849 2.54852L21.5839 2.54747Z" fill="#FFF2D6"/>
</svg>
