<svg width="22" height="18" viewBox="0 0 22 18" fill="none" xmlns="http://www.w3.org/2000/svg">
<path d="M20.9432 3.4263C21.4193 5.28255 21.4193 9.15755 21.4193 9.15755C21.4193 9.15755 21.4193 13.0326 20.9432 14.8888C20.6786 15.9148 19.9047 16.7221 18.9245 16.9951C17.1443 17.4909 11.0026 17.4909 11.0026 17.4909C11.0026 17.4909 4.86406 17.4909 3.08073 16.9951C2.09635 16.718 1.32344 15.9117 1.06198 14.8888C0.585938 13.0326 0.585938 9.15755 0.585938 9.15755C0.585938 9.15755 0.585938 5.28255 1.06198 3.4263C1.32656 2.40026 2.10052 1.59297 3.08073 1.32005C4.86406 0.824219 11.0026 0.824219 11.0026 0.824219C11.0026 0.824219 17.1443 0.824219 18.9245 1.32005C19.9089 1.59714 20.6818 2.40339 20.9432 3.4263ZM8.91927 12.8034L15.1693 9.15755L8.91927 5.51172V12.8034Z" fill="#FFF2D6"/>
</svg>
