<svg width="135" height="148" viewBox="0 0 135 148" fill="none" xmlns="http://www.w3.org/2000/svg">
<path d="M59.8359 145.811C60.3719 145.536 60.8573 145.219 61.2759 144.86L82.6413 126.567C83.8506 125.531 84.3013 124.328 84.0679 123.173C84.3013 124.328 83.8506 125.532 82.6426 126.567L61.2759 144.86C60.8573 145.219 60.3719 145.536 59.8359 145.811Z" fill="white"/>
<path d="M131.638 27.5502L112.927 4.79556C109.953 1.17822 105.278 -0.583099 100.655 0.172897L71.8674 4.88487C67.2354 5.64354 63.3594 8.81422 61.6994 13.2036L51.3968 40.4396C49.7288 44.8502 50.5514 49.8155 53.5528 53.4515L72.2221 76.0769C75.1981 79.6822 79.8648 81.4356 84.4781 80.6809L113.371 75.9515C118.005 75.1942 121.881 72.0222 123.541 67.6302L133.779 40.5409C135.443 36.1396 134.626 31.1835 131.638 27.5502Z" fill="#5111C0"/>
<path d="M72.5264 76.6895L53.1238 52.9788C50.6798 49.9921 49.9758 44.1921 51.5518 40.0241L61.5211 13.6481C63.0958 9.48015 66.3544 8.52281 68.7984 11.5081L88.2011 35.2188C90.6451 38.2055 91.3504 44.0055 89.7744 48.1735L79.8051 74.5495C78.2291 78.7188 74.9704 79.6761 72.5264 76.6895Z" fill="#6A19F5"/>
<path d="M61.5234 13.6484C61.5261 13.6391 61.5301 13.6311 61.5328 13.6217C61.5301 13.6311 61.5261 13.6391 61.5234 13.6484ZM61.5354 13.6151C61.5381 13.6084 61.5408 13.6004 61.5435 13.5938C61.5408 13.6004 61.5381 13.6084 61.5354 13.6151ZM61.5461 13.5871C61.5501 13.5791 61.5528 13.5698 61.5568 13.5618C61.5528 13.5698 61.5501 13.5791 61.5461 13.5871ZM61.5581 13.5577C61.5608 13.5497 61.5634 13.5418 61.5674 13.5351C61.5634 13.5418 61.5608 13.5497 61.5581 13.5577ZM61.5701 13.5244C61.5728 13.5204 61.5741 13.5151 61.5768 13.5098C61.5741 13.5151 61.5728 13.5204 61.5701 13.5244ZM61.5821 13.4978C61.5835 13.4938 61.5848 13.4897 61.5861 13.4871C61.5848 13.4897 61.5835 13.4938 61.5821 13.4978ZM61.5981 13.4551C61.5994 13.4537 61.5994 13.4524 61.5994 13.4511C61.5994 13.4524 61.5994 13.4537 61.5981 13.4551ZM61.6075 13.4311L61.6088 13.4298L61.6075 13.4311Z" fill="#99D4FF"/>
<path d="M75.7443 78.4141L73.1363 71.3741C71.5003 66.9621 67.6309 63.7607 62.9909 62.9807L61.0416 62.6527L53.1243 52.9781C51.5629 51.0714 50.7123 48.0154 50.7109 44.9714C50.7109 43.2487 50.9829 41.53 51.5522 40.0234L61.5216 13.6474C61.5242 13.6381 61.5283 13.63 61.5309 13.6207C61.5323 13.618 61.5336 13.6167 61.5336 13.6141C61.5363 13.6074 61.5389 13.5994 61.5416 13.5927C61.5429 13.5914 61.5443 13.5887 61.5443 13.586C61.5483 13.578 61.5509 13.5687 61.5549 13.5607C61.5549 13.5594 61.5562 13.558 61.5562 13.5567C61.5589 13.5487 61.5616 13.5407 61.5656 13.534C61.5669 13.5301 61.5669 13.5274 61.5683 13.5234C61.5709 13.5194 61.5723 13.5141 61.5749 13.5087C61.5763 13.5047 61.5776 13.5007 61.5803 13.4967C61.5816 13.4927 61.5829 13.4887 61.5842 13.486C61.5882 13.4754 61.5923 13.4647 61.5963 13.454C61.5976 13.4527 61.5976 13.4514 61.5976 13.45C61.6003 13.4434 61.6029 13.4367 61.6056 13.43L61.6069 13.4287C62.3189 11.6647 63.3416 10.5181 64.4669 10.0354L72.4256 58.118C71.6896 58.2687 71.0349 58.8794 70.6163 59.9247C70.6123 59.934 70.6096 59.9447 70.6056 59.954C70.6016 59.9634 70.5976 59.974 70.5936 59.9834C70.5896 59.994 70.5856 60.0034 70.5829 60.0127C69.7216 62.2901 70.2816 65.6714 71.8323 67.5674C72.5163 68.4021 73.2762 68.8087 73.9882 68.8087C74.0576 68.8087 74.1256 68.8047 74.1936 68.7967L75.7856 78.4127C75.7709 78.4141 75.7576 78.4141 75.7443 78.4141Z" fill="#6A19F5"/>
<path d="M113.989 75.8505L83.8771 80.7785C80.0851 81.3999 78.2824 78.5385 79.8517 74.3865L89.7798 48.1185C91.3491 43.9665 95.6957 40.0985 99.4891 39.4772L129.601 34.5492C133.393 33.9292 135.196 36.7905 133.628 40.9425L123.698 67.2105C122.129 71.3612 117.782 75.2305 113.989 75.8505Z" fill="#6A19F5"/>
<path d="M79.8281 74.4453C79.8281 74.444 79.8295 74.4426 79.8295 74.4413C79.8295 74.4426 79.8281 74.444 79.8281 74.4453ZM79.8375 74.42C79.8388 74.4173 79.8401 74.4146 79.8401 74.4133C79.8401 74.4146 79.8388 74.4173 79.8375 74.42ZM79.8508 74.3866L89.7788 48.1186C89.7841 48.104 89.7895 48.0893 89.7961 48.0746C89.7895 48.0893 89.7841 48.104 89.7788 48.1186L79.8508 74.3866ZM89.7961 48.0733C89.8015 48.0586 89.8068 48.044 89.8135 48.0293C89.8068 48.044 89.8015 48.0586 89.7961 48.0733Z" fill="#67B046"/>
<path d="M89.918 47.7676C91.5926 43.7516 95.802 40.0809 99.4886 39.4769L99.6846 39.4449C99.686 39.4449 99.686 39.4449 99.6873 39.4449L99.4886 39.4769C96.122 40.0289 92.3193 43.1369 90.41 46.7316C90.4087 46.7342 90.4073 46.7356 90.406 46.7382C90.3993 46.7502 90.394 46.7623 90.3873 46.7743C90.3846 46.7783 90.3833 46.7822 90.3807 46.7862C90.3753 46.7956 90.3713 46.8049 90.366 46.8156C90.362 46.8223 90.3593 46.8276 90.3553 46.8342C90.3526 46.8409 90.35 46.8462 90.346 46.8529C90.3407 46.8636 90.3353 46.8742 90.33 46.8836C90.3286 46.8876 90.3273 46.8902 90.326 46.8929C90.1766 47.1822 90.0406 47.4742 89.918 47.7676Z" fill="#4A8520"/>
<path d="M89.8125 48.0273C89.8458 47.9407 89.8805 47.854 89.9165 47.7674C89.8805 47.854 89.8458 47.9407 89.8125 48.0273Z" fill="#67B046"/>
<path d="M129.258 34.6055L129.599 34.5495L129.258 34.6055Z" fill="#4A8520"/>
<path d="M80.7677 79.5332C80.1424 78.3532 80.1331 76.6492 80.8877 74.6519L91.0491 47.7679C92.3384 44.3559 95.4624 41.1345 98.6531 39.6679C95.5117 40.5465 92.1651 43.4332 90.4131 46.7305C92.3224 43.1359 96.1251 40.0279 99.4917 39.4759L99.6904 39.4439C99.9944 39.4185 100.293 39.3812 100.588 39.3332L100.698 39.3145L128.414 34.7799C128.71 34.7305 128.992 34.6719 129.262 34.6039L129.604 34.5479C129.949 34.4919 130.28 34.4639 130.592 34.4639C132.142 34.4639 133.254 35.1439 133.804 36.2919L80.7677 79.5332ZM79.7891 74.5625C79.7904 74.5599 79.7904 74.5559 79.7917 74.5519C79.7904 74.5559 79.7891 74.5599 79.7891 74.5625ZM79.7997 74.5332C79.8011 74.5279 79.8037 74.5212 79.8051 74.5159C79.8037 74.5212 79.8011 74.5265 79.7997 74.5332ZM79.8118 74.4999C79.8158 74.4892 79.8197 74.4785 79.8224 74.4679C79.8197 74.4785 79.8158 74.4892 79.8118 74.4999ZM79.8277 74.4559C79.8291 74.4519 79.8304 74.4479 79.8317 74.4439C79.8317 74.4425 79.8331 74.4412 79.8331 74.4399C79.8344 74.4372 79.8357 74.4345 79.8371 74.4319C79.8331 74.4399 79.8304 74.4479 79.8277 74.4559ZM79.8411 74.4199V74.4185C79.8424 74.4159 79.8437 74.4132 79.8437 74.4119C79.8477 74.4025 79.8504 74.3945 79.8544 74.3852C79.8491 74.3972 79.8451 74.4079 79.8411 74.4199ZM90.3291 46.8919C90.3304 46.8892 90.3317 46.8865 90.3331 46.8825C90.3317 46.8865 90.3304 46.8892 90.3291 46.8919ZM90.3491 46.8519C90.3531 46.8452 90.3557 46.8399 90.3584 46.8332C90.3557 46.8399 90.3531 46.8452 90.3491 46.8519ZM90.3691 46.8145C90.3744 46.8039 90.3784 46.7945 90.3838 46.7852C90.3798 46.7945 90.3731 46.8052 90.3691 46.8145ZM90.3904 46.7732C90.3971 46.7612 90.4024 46.7492 90.4091 46.7372C90.4024 46.7492 90.3971 46.7612 90.3904 46.7732Z" fill="#6A19F5"/>
<mask id="path-12-inside-1_2_1544" fill="white">
<path d="M88.1998 35.23L68.7971 11.5193C66.3531 8.53268 67.9371 5.5287 72.3344 4.8087L100.161 0.254013C104.558 -0.464653 110.105 1.37268 112.549 4.35935L131.952 28.0687C134.396 31.0554 132.812 34.0607 128.414 34.7807L100.588 39.334C96.1904 40.054 90.6438 38.2167 88.1998 35.23Z"/>
</mask>
<path d="M88.1998 35.23L68.7971 11.5193C66.3531 8.53268 67.9371 5.5287 72.3344 4.8087L100.161 0.254013C104.558 -0.464653 110.105 1.37268 112.549 4.35935L131.952 28.0687C134.396 31.0554 132.812 34.0607 128.414 34.7807L100.588 39.334C96.1904 40.054 90.6438 38.2167 88.1998 35.23Z" fill="#6A19F5"/>
<path d="M68.7971 11.5193L68.0232 12.1526L68.0232 12.1526L68.7971 11.5193ZM72.3344 4.8087L72.1728 3.82184L72.1729 3.82183L72.3344 4.8087ZM100.161 0.254013L99.9996 -0.732853L99.9998 -0.732891L100.161 0.254013ZM112.549 4.35935L111.775 4.99267L111.775 4.99265L112.549 4.35935ZM131.952 28.0687L132.726 27.4354L132.726 27.4354L131.952 28.0687ZM128.414 34.7807L128.576 35.7676L128.576 35.7676L128.414 34.7807ZM100.588 39.334L100.426 38.3472L100.426 38.3472L100.588 39.334ZM87.4259 35.8633L68.0232 12.1526L69.571 10.886L88.9737 34.5967L87.4259 35.8633ZM68.0232 12.1526C66.6272 10.4467 66.2352 8.51787 67.1157 6.84768C67.9595 5.24703 69.8113 4.20852 72.1728 3.82184L72.496 5.79556C70.4603 6.12889 69.3214 6.95236 68.8849 7.78037C68.485 8.53883 68.523 9.60534 69.571 10.8861L68.0232 12.1526ZM72.1729 3.82183L99.9996 -0.732853L100.323 1.24088L72.496 5.79557L72.1729 3.82183ZM99.9998 -0.732891C102.385 -1.12268 105.035 -0.816288 107.402 -0.0320625C109.76 0.749134 111.944 2.04121 113.323 3.72606L111.775 4.99265C110.71 3.69083 108.899 2.5709 106.773 1.86643C104.656 1.16499 102.335 0.912048 100.322 1.24092L99.9998 -0.732891ZM113.323 3.72604L132.726 27.4354L131.178 28.702L111.775 4.99267L113.323 3.72604ZM132.726 27.4354C134.122 29.1414 134.514 31.0705 133.633 32.7409C132.79 34.3419 130.938 35.3809 128.576 35.7676L128.253 33.7938C130.288 33.4605 131.427 32.6368 131.864 31.8085C132.264 31.0495 132.226 29.9826 131.178 28.702L132.726 27.4354ZM128.576 35.7676L100.749 40.3209L100.426 38.3472L128.253 33.7938L128.576 35.7676ZM100.749 40.3209C98.3642 40.7114 95.7136 40.4054 93.3468 39.6213C90.9891 38.8403 88.8046 37.5482 87.4259 35.8633L88.9737 34.5967C90.039 35.8985 91.8497 37.0185 93.9757 37.7228C96.0926 38.424 98.414 38.6766 100.426 38.3472L100.749 40.3209Z" fill="#5111C0" mask="url(#path-12-inside-1_2_1544)"/>
<path d="M83.5117 13.4734C82.9103 15.0907 80.157 15.5414 77.3623 14.48C74.5676 13.4174 72.789 11.244 73.3903 9.62669C73.9916 8.00802 76.745 7.55735 79.541 8.62001C82.3356 9.68135 84.1143 11.8547 83.5117 13.4734Z" fill="#404555"/>
<path d="M79.1651 9.62637C81.6691 10.5784 83.3504 12.4197 83.2424 13.957C83.3557 13.809 83.4504 13.6504 83.5158 13.4744C84.1184 11.8557 82.3398 9.68236 79.5451 8.62103C76.7504 7.55836 73.9957 8.00904 73.3944 9.6277C73.3317 9.7957 73.3011 9.97169 73.2891 10.1504C74.2197 8.93703 76.6731 8.6797 79.1651 9.62637Z" fill="#0C1121"/>
<path d="M127.316 30.0323C126.715 31.6496 123.962 32.1003 121.167 31.0376C118.371 29.9763 116.594 27.803 117.195 26.1856C117.796 24.567 120.55 24.1163 123.346 25.179C126.14 26.2403 127.918 28.4136 127.316 30.0323Z" fill="#404555"/>
<path d="M122.966 26.183C125.47 27.1336 127.153 28.9763 127.045 30.5137C127.158 30.3657 127.253 30.2057 127.318 30.031C127.919 28.4123 126.142 26.239 123.347 25.1777C120.551 24.115 117.798 24.5656 117.197 26.1843C117.134 26.3523 117.103 26.5283 117.09 26.707C118.021 25.4937 120.475 25.2363 122.966 26.183Z" fill="#0C1121"/>
<path d="M110.185 9.04473C109.582 10.6634 106.829 11.114 104.034 10.0514C101.24 8.9887 99.4608 6.81671 100.062 5.19805C100.665 3.58071 103.418 3.13004 106.213 4.19137C109.008 5.25404 110.786 7.42739 110.185 9.04473Z" fill="#404555"/>
<path d="M105.829 5.19668C108.333 6.14868 110.014 7.99134 109.906 9.52734C110.02 9.37934 110.116 9.22069 110.181 9.04469C110.782 7.42736 109.004 5.25401 106.209 4.19134C103.414 3.13001 100.66 3.58068 100.058 5.19801C99.9958 5.36735 99.9651 5.542 99.9531 5.72067C100.884 4.50867 103.337 4.25001 105.829 5.19668Z" fill="#0C1121"/>
<path d="M100.634 34.3109C100.031 35.9296 97.278 36.3789 94.4834 35.3176C91.6887 34.2549 89.9101 32.0816 90.5114 30.4643C91.1141 28.8456 93.8674 28.3949 96.662 29.4576C99.4567 30.5203 101.235 32.6923 100.634 34.3109Z" fill="#404555"/>
<path d="M96.2823 30.4623C98.7863 31.4143 100.468 33.2556 100.36 34.793C100.473 34.645 100.569 34.4863 100.634 34.3103C101.236 32.6917 99.4569 30.5196 96.6622 29.457C93.8676 28.3943 91.1143 28.845 90.5116 30.4636C90.4489 30.6316 90.4183 30.8076 90.4062 30.9863C91.3369 29.773 93.7903 29.5156 96.2823 30.4623Z" fill="#0C1121"/>
<path d="M103.536 58.8934C102.676 61.1694 103.937 62.6948 106.354 62.2988C108.77 61.9041 111.428 59.7374 112.288 57.4601C113.149 55.1841 111.886 53.6588 109.47 54.0548C107.053 54.4508 104.396 56.6161 103.536 58.8934Z" fill="#262B3B"/>
<path d="M105.463 61.2432C107.88 60.8472 110.537 58.6819 111.397 56.4045C111.705 55.5885 111.737 54.8712 111.544 54.3019C112.509 54.8272 112.849 55.9832 112.291 57.4605C111.431 59.7379 108.773 61.9032 106.357 62.2992C104.807 62.5525 103.736 62.0139 103.391 60.9965C103.913 61.2805 104.615 61.3819 105.463 61.2432Z" fill="#0C1121"/>
<path d="M72.6408 47.2169C71.7808 49.4929 69.8262 49.8023 68.2755 47.9063C66.7235 46.0116 66.1648 42.6289 67.0248 40.3529C67.8848 38.0756 69.8395 37.7676 71.3915 39.6622C72.9422 41.5582 73.5022 44.9396 72.6408 47.2169Z" fill="#262B3B"/>
<path d="M69.6435 47.7059C68.0928 45.8099 67.5328 42.4285 68.3928 40.1512C68.7022 39.3352 69.1528 38.7766 69.6742 38.4766C68.6035 38.2326 67.5835 38.8752 67.0248 40.3525C66.1648 42.6285 66.7235 46.0112 68.2755 47.9059C69.2702 49.1219 70.4288 49.4259 71.3608 48.8912C70.7822 48.7579 70.1888 48.3699 69.6435 47.7059Z" fill="#0C1121"/>
<path d="M76.2 66.8768C75.34 69.1528 73.3854 69.4622 71.8334 67.5675C70.2827 65.6715 69.7227 62.2902 70.5841 60.0128C71.4441 57.7368 73.3987 57.4275 74.9494 59.3235C76.5014 61.2182 77.06 64.6008 76.2 66.8768Z" fill="#262B3B"/>
<path d="M73.2027 67.3654C71.652 65.4707 71.092 62.0881 71.952 59.8121C72.2614 58.9948 72.712 58.4361 73.2334 58.1374C72.1614 57.8921 71.1414 58.5348 70.5841 60.0121C69.7227 62.2894 70.2827 65.6707 71.8334 67.5667C72.828 68.7814 73.988 69.0867 74.92 68.5507C74.3414 68.4187 73.7467 68.0307 73.2027 67.3654Z" fill="#0C1121"/>
<path d="M69.6067 27.724C68.7467 30.0014 66.7907 30.3094 65.2401 28.4147C63.6894 26.5201 63.1294 23.1374 63.9894 20.8614C64.8507 18.584 66.8054 18.2747 68.3561 20.1707C69.9081 22.0654 70.4667 25.448 69.6067 27.724Z" fill="#262B3B"/>
<path d="M66.6094 28.2128C65.0587 26.3181 64.4987 22.9354 65.3587 20.6594C65.6681 19.8434 66.1187 19.2834 66.6387 18.9848C65.5681 18.7394 64.5481 19.3821 63.9894 20.8608C63.1294 23.1368 63.6894 26.5195 65.2401 28.4141C66.2347 29.6301 67.3947 29.9341 68.3267 29.3981C67.7467 29.2661 67.1534 28.8781 66.6094 28.2128Z" fill="#0C1121"/>
<path d="M98.5898 39.4902C98.9578 39.4902 99.3245 39.4756 99.6845 39.4449C99.3245 39.4756 98.9578 39.4902 98.5898 39.4902Z" fill="#99D4FF"/>
<path d="M88.2721 35.3164C88.2468 35.2871 88.2228 35.2591 88.1988 35.2298L68.7961 11.5191L88.1988 35.2298C88.2228 35.2591 88.2468 35.2871 88.2721 35.3164ZM68.7761 11.4951C68.7761 11.4938 68.7748 11.4924 68.7734 11.4911C68.7748 11.4924 68.7748 11.4938 68.7761 11.4951Z" fill="#99D4FF"/>
<path d="M99.6875 39.4453C99.9915 39.42 100.29 39.3826 100.585 39.3346L100.696 39.316L100.585 39.3346C100.29 39.3826 99.9915 39.42 99.6875 39.4453Z" fill="#99D4FF"/>
<mask id="path-33-inside-2_2_1544" fill="white">
<path d="M98.5916 39.4902C94.6743 39.4902 90.3836 37.8169 88.2716 35.3169C88.2463 35.2876 88.2223 35.2596 88.1983 35.2302L68.7956 11.5196C68.7889 11.5116 68.7823 11.5036 68.7756 11.4956C68.7743 11.4942 68.7743 11.4929 68.773 11.4916C66.985 9.2849 67.3996 7.07423 69.517 5.7849C68.0556 7.1249 67.9503 9.07557 69.545 11.0236L89.1956 35.0369C91.3076 37.6182 95.7063 39.3476 99.7183 39.3476C100.061 39.3476 100.402 39.3356 100.737 39.3089L100.697 39.3156L100.586 39.3342C100.292 39.3822 99.9929 39.4196 99.6889 39.4449C99.6876 39.4449 99.6876 39.4449 99.6863 39.4449C99.3263 39.4756 98.9596 39.4902 98.5916 39.4902Z"/>
</mask>
<path d="M98.5916 39.4902C94.6743 39.4902 90.3836 37.8169 88.2716 35.3169C88.2463 35.2876 88.2223 35.2596 88.1983 35.2302L68.7956 11.5196C68.7889 11.5116 68.7823 11.5036 68.7756 11.4956C68.7743 11.4942 68.7743 11.4929 68.773 11.4916C66.985 9.2849 67.3996 7.07423 69.517 5.7849C68.0556 7.1249 67.9503 9.07557 69.545 11.0236L89.1956 35.0369C91.3076 37.6182 95.7063 39.3476 99.7183 39.3476C100.061 39.3476 100.402 39.3356 100.737 39.3089L100.697 39.3156L100.586 39.3342C100.292 39.3822 99.9929 39.4196 99.6889 39.4449C99.6876 39.4449 99.6876 39.4449 99.6863 39.4449C99.3263 39.4756 98.9596 39.4902 98.5916 39.4902Z" fill="#99D4FF"/>
<path d="M88.2716 35.3169L89.0285 34.6632L89.0355 34.6716L88.2716 35.3169ZM88.1983 35.2302L88.9722 34.5969L88.9722 34.597L88.1983 35.2302ZM68.7956 11.5196L69.5639 10.8794L69.5695 10.8863L68.7956 11.5196ZM68.7756 11.4956L69.4827 10.7885L69.5148 10.8205L69.5439 10.8554L68.7756 11.4956ZM68.773 11.4916L68.0659 12.1987L68.0289 12.1617L67.996 12.1211L68.773 11.4916ZM69.517 5.7849L68.9969 4.93079L70.1928 6.52194L69.517 5.7849ZM69.545 11.0236L70.3188 10.3901L70.3189 10.3903L69.545 11.0236ZM89.1956 35.0369L89.9695 34.4036L89.9696 34.4037L89.1956 35.0369ZM100.737 39.3089L100.658 38.3121L100.901 40.2953L100.737 39.3089ZM100.697 39.3156L100.531 38.3295L100.532 38.3292L100.697 39.3156ZM100.586 39.3342L100.752 40.3204L100.747 40.3212L100.586 39.3342ZM99.6889 39.4449L99.772 40.4415L99.7305 40.4449H99.6889V39.4449ZM99.6863 39.4449L99.6014 38.4485L99.6438 38.4449H99.6863V39.4449ZM98.5916 40.4902C94.4638 40.4902 89.858 38.7442 87.5077 35.9622L89.0355 34.6716C90.9093 36.8895 94.8847 38.4902 98.5916 38.4902V40.4902ZM87.5148 35.9705C87.4888 35.9404 87.4574 35.9038 87.4243 35.8635L88.9722 34.597C88.9872 34.6153 89.0038 34.6347 89.0284 34.6633L87.5148 35.9705ZM87.4244 35.8635L68.0217 12.1529L69.5695 10.8863L88.9722 34.5969L87.4244 35.8635ZM68.0274 12.1597C68.024 12.1557 68.0206 12.1516 68.0173 12.1476C68.0139 12.1436 68.0107 12.1397 68.0074 12.1358L69.5439 10.8554C69.5473 10.8595 69.5507 10.8636 69.554 10.8675C69.5573 10.8715 69.5606 10.8755 69.5638 10.8794L68.0274 12.1597ZM68.0685 12.2027C68.0385 12.1727 68.0115 12.1418 67.9871 12.1107C67.9629 12.0797 67.943 12.0504 67.9269 12.0246C67.911 11.9992 67.8991 11.9776 67.8915 11.9634C67.8877 11.9562 67.8847 11.9504 67.8829 11.9468C67.8819 11.9449 67.8812 11.9434 67.8807 11.9425C67.8805 11.942 67.8803 11.9416 67.8802 11.9414C67.8801 11.9412 67.88 11.9411 67.88 11.9411C67.88 11.941 67.88 11.941 67.88 11.941C67.8797 11.9404 67.881 11.9431 67.8826 11.9463C67.8844 11.9497 67.8873 11.9554 67.891 11.9624C67.8984 11.9763 67.9101 11.9975 67.9258 12.0226C67.9417 12.0481 67.9614 12.077 67.9854 12.1077C68.0094 12.1385 68.0362 12.169 68.0659 12.1987L69.4801 10.7845C69.5101 10.8145 69.5371 10.8453 69.5615 10.8765C69.5857 10.9075 69.6056 10.9367 69.6217 10.9625C69.6376 10.988 69.6495 11.0095 69.6571 11.0238C69.6609 11.0309 69.6639 11.0367 69.6657 11.0404C69.6666 11.0422 69.6674 11.0437 69.6679 11.0447C69.6681 11.0451 69.6683 11.0455 69.6684 11.0458C69.6685 11.0459 69.6685 11.046 69.6686 11.0461C69.6686 11.0461 69.6686 11.0462 69.6686 11.0462C69.6689 11.0467 69.6676 11.044 69.666 11.0409C69.6642 11.0374 69.6613 11.0317 69.6576 11.0248C69.6502 11.0108 69.6385 10.9896 69.6228 10.9645C69.6069 10.9391 69.5872 10.9102 69.5632 10.8795C69.5392 10.8487 69.5124 10.8181 69.4827 10.7885L68.0685 12.2027ZM67.996 12.1211C66.9789 10.8659 66.495 9.48894 66.691 8.14943C66.8882 6.80177 67.7444 5.69347 68.9969 4.93079L70.0371 6.639C69.1722 7.16566 68.7624 7.80736 68.6699 8.43904C68.5763 9.07887 68.779 9.91056 69.5499 10.862L67.996 12.1211ZM70.1928 6.52194C69.6407 7.02822 69.3913 7.59731 69.3849 8.18699C69.3784 8.79283 69.6284 9.54686 70.3188 10.3901L68.7712 11.657C67.8668 10.5523 67.3722 9.35698 67.385 8.16548C67.398 6.95783 67.9319 5.88158 68.8411 5.04786L70.1928 6.52194ZM70.3189 10.3903L89.9695 34.4036L88.4217 35.6702L68.7711 11.6569L70.3189 10.3903ZM89.9696 34.4037C91.8409 36.6908 95.9156 38.3476 99.7183 38.3476V40.3476C95.4969 40.3476 90.7744 38.5457 88.4217 35.6702L89.9696 34.4037ZM99.7183 38.3476C100.038 38.3476 100.353 38.3364 100.658 38.3121L100.816 40.3058C100.452 40.3348 100.084 40.3476 99.7183 40.3476V38.3476ZM100.901 40.2953L100.861 40.302L100.532 38.3292L100.572 38.3225L100.901 40.2953ZM100.863 40.3017L100.752 40.3203L100.42 38.3482L100.531 38.3295L100.863 40.3017ZM100.747 40.3212C100.428 40.3733 100.103 40.4139 99.772 40.4415L99.6059 38.4484C99.8828 38.4253 100.156 38.3912 100.425 38.3473L100.747 40.3212ZM99.6889 40.4449C99.6889 40.4449 99.6889 40.4449 99.6889 40.4449C99.6889 40.4449 99.6889 40.4449 99.6889 40.4449C99.6889 40.4449 99.6889 40.4449 99.6889 40.4449C99.6889 40.4449 99.6889 40.4449 99.6889 40.4449C99.6889 40.4449 99.6889 40.4449 99.6889 40.4449C99.6889 40.4449 99.6889 40.4449 99.6889 40.4449C99.6889 40.4449 99.6889 40.4449 99.6889 40.4449H99.6889C99.6889 40.4449 99.6889 40.4449 99.6889 40.4449C99.6889 40.4449 99.6889 40.4449 99.6889 40.4449C99.6889 40.4449 99.6889 40.4449 99.6889 40.4449C99.6889 40.4449 99.6889 40.4449 99.6889 40.4449C99.6888 40.4449 99.6888 40.4449 99.6888 40.4449C99.6888 40.4449 99.6888 40.4449 99.6888 40.4449C99.6888 40.4449 99.6888 40.4449 99.6888 40.4449C99.6888 40.4449 99.6888 40.4449 99.6888 40.4449C99.6888 40.4449 99.6888 40.4449 99.6888 40.4449C99.6888 40.4449 99.6888 40.4449 99.6888 40.4449C99.6888 40.4449 99.6888 40.4449 99.6888 40.4449C99.6888 40.4449 99.6888 40.4449 99.6888 40.4449C99.6888 40.4449 99.6888 40.4449 99.6888 40.4449C99.6888 40.4449 99.6888 40.4449 99.6888 40.4449H99.6888C99.6888 40.4449 99.6888 40.4449 99.6888 40.4449C99.6888 40.4449 99.6888 40.4449 99.6888 40.4449C99.6888 40.4449 99.6888 40.4449 99.6887 40.4449C99.6887 40.4449 99.6887 40.4449 99.6887 40.4449C99.6887 40.4449 99.6887 40.4449 99.6887 40.4449C99.6887 40.4449 99.6887 40.4449 99.6887 40.4449H99.6887C99.6887 40.4449 99.6887 40.4449 99.6887 40.4449C99.6887 40.4449 99.6887 40.4449 99.6887 40.4449C99.6887 40.4449 99.6887 40.4449 99.6887 40.4449C99.6887 40.4449 99.6887 40.4449 99.6887 40.4449H99.6887C99.6887 40.4449 99.6887 40.4449 99.6887 40.4449C99.6887 40.4449 99.6887 40.4449 99.6887 40.4449C99.6887 40.4449 99.6887 40.4449 99.6887 40.4449H99.6887C99.6887 40.4449 99.6887 40.4449 99.6887 40.4449C99.6886 40.4449 99.6886 40.4449 99.6886 40.4449C99.6886 40.4449 99.6886 40.4449 99.6886 40.4449H99.6886C99.6886 40.4449 99.6886 40.4449 99.6886 40.4449C99.6886 40.4449 99.6886 40.4449 99.6886 40.4449C99.6886 40.4449 99.6886 40.4449 99.6886 40.4449H99.6886C99.6886 40.4449 99.6886 40.4449 99.6886 40.4449C99.6886 40.4449 99.6886 40.4449 99.6886 40.4449H99.6886C99.6886 40.4449 99.6886 40.4449 99.6886 40.4449C99.6886 40.4449 99.6886 40.4449 99.6886 40.4449H99.6886C99.6886 40.4449 99.6886 40.4449 99.6886 40.4449C99.6886 40.4449 99.6886 40.4449 99.6886 40.4449H99.6885C99.6885 40.4449 99.6885 40.4449 99.6885 40.4449C99.6885 40.4449 99.6885 40.4449 99.6885 40.4449H99.6885C99.6885 40.4449 99.6885 40.4449 99.6885 40.4449C99.6885 40.4449 99.6885 40.4449 99.6885 40.4449H99.6885C99.6885 40.4449 99.6885 40.4449 99.6885 40.4449H99.6885C99.6885 40.4449 99.6885 40.4449 99.6885 40.4449C99.6885 40.4449 99.6885 40.4449 99.6885 40.4449H99.6885C99.6885 40.4449 99.6885 40.4449 99.6885 40.4449H99.6885C99.6885 40.4449 99.6885 40.4449 99.6885 40.4449C99.6885 40.4449 99.6885 40.4449 99.6885 40.4449H99.6884C99.6884 40.4449 99.6884 40.4449 99.6884 40.4449H99.6884C99.6884 40.4449 99.6884 40.4449 99.6884 40.4449H99.6884C99.6884 40.4449 99.6884 40.4449 99.6884 40.4449H99.6884C99.6884 40.4449 99.6884 40.4449 99.6884 40.4449H99.6884C99.6884 40.4449 99.6884 40.4449 99.6884 40.4449H99.6884C99.6884 40.4449 99.6884 40.4449 99.6884 40.4449H99.6884C99.6884 40.4449 99.6884 40.4449 99.6884 40.4449H99.6884C99.6884 40.4449 99.6884 40.4449 99.6884 40.4449H99.6884C99.6884 40.4449 99.6884 40.4449 99.6884 40.4449H99.6883C99.6883 40.4449 99.6883 40.4449 99.6883 40.4449H99.6883C99.6883 40.4449 99.6883 40.4449 99.6883 40.4449C99.6883 40.4449 99.6883 40.4449 99.6883 40.4449H99.6883C99.6883 40.4449 99.6883 40.4449 99.6883 40.4449H99.6883C99.6883 40.4449 99.6883 40.4449 99.6883 40.4449H99.6883C99.6883 40.4449 99.6883 40.4449 99.6883 40.4449C99.6883 40.4449 99.6883 40.4449 99.6883 40.4449H99.6883C99.6883 40.4449 99.6883 40.4449 99.6883 40.4449H99.6883H99.6883C99.6883 40.4449 99.6883 40.4449 99.6883 40.4449H99.6883C99.6883 40.4449 99.6883 40.4449 99.6882 40.4449C99.6882 40.4449 99.6882 40.4449 99.6882 40.4449H99.6882C99.6882 40.4449 99.6882 40.4449 99.6882 40.4449H99.6882H99.6882C99.6882 40.4449 99.6882 40.4449 99.6882 40.4449H99.6882H99.6882C99.6882 40.4449 99.6882 40.4449 99.6882 40.4449H99.6882H99.6882C99.6882 40.4449 99.6882 40.4449 99.6882 40.4449C99.6882 40.4449 99.6882 40.4449 99.6882 40.4449H99.6882C99.6882 40.4449 99.6882 40.4449 99.6882 40.4449C99.6882 40.4449 99.6882 40.4449 99.6882 40.4449H99.6882C99.6882 40.4449 99.6882 40.4449 99.6882 40.4449C99.6882 40.4449 99.6882 40.4449 99.6882 40.4449H99.6881H99.6881C99.6881 40.4449 99.6881 40.4449 99.6881 40.4449C99.6881 40.4449 99.6881 40.4449 99.6881 40.4449H99.6881C99.6881 40.4449 99.6881 40.4449 99.6881 40.4449C99.6881 40.4449 99.6881 40.4449 99.6881 40.4449C99.6881 40.4449 99.6881 40.4449 99.6881 40.4449H99.6881C99.6881 40.4449 99.6881 40.4449 99.6881 40.4449C99.6881 40.4449 99.6881 40.4449 99.6881 40.4449C99.6881 40.4449 99.6881 40.4449 99.6881 40.4449H99.6881C99.6881 40.4449 99.6881 40.4449 99.6881 40.4449C99.6881 40.4449 99.6881 40.4449 99.6881 40.4449C99.6881 40.4449 99.6881 40.4449 99.6881 40.4449H99.6881H99.6881C99.6881 40.4449 99.6881 40.4449 99.6881 40.4449C99.6881 40.4449 99.6881 40.4449 99.6881 40.4449C99.6881 40.4449 99.6881 40.4449 99.6881 40.4449H99.688H99.688C99.688 40.4449 99.688 40.4449 99.688 40.4449C99.688 40.4449 99.688 40.4449 99.688 40.4449C99.688 40.4449 99.688 40.4449 99.688 40.4449H99.688H99.688C99.688 40.4449 99.688 40.4449 99.688 40.4449C99.688 40.4449 99.688 40.4449 99.688 40.4449C99.688 40.4449 99.688 40.4449 99.688 40.4449H99.688H99.688C99.688 40.4449 99.688 40.4449 99.688 40.4449C99.688 40.4449 99.688 40.4449 99.688 40.4449C99.688 40.4449 99.688 40.4449 99.688 40.4449C99.688 40.4449 99.688 40.4449 99.688 40.4449H99.688H99.688H99.688C99.688 40.4449 99.688 40.4449 99.688 40.4449C99.688 40.4449 99.688 40.4449 99.688 40.4449C99.688 40.4449 99.688 40.4449 99.688 40.4449C99.688 40.4449 99.688 40.4449 99.688 40.4449H99.6879H99.6879H99.6879C99.6879 40.4449 99.6879 40.4449 99.6879 40.4449C99.6879 40.4449 99.6879 40.4449 99.6879 40.4449C99.6879 40.4449 99.6879 40.4449 99.6879 40.4449C99.6879 40.4449 99.6879 40.4449 99.6879 40.4449C99.6879 40.4449 99.6879 40.4449 99.6879 40.4449H99.6879H99.6879H99.6879C99.6879 40.4449 99.6879 40.4449 99.6879 40.4449C99.6879 40.4449 99.6879 40.4449 99.6879 40.4449C99.6879 40.4449 99.6879 40.4449 99.6879 40.4449C99.6879 40.4449 99.6879 40.4449 99.6879 40.4449C99.6879 40.4449 99.6879 40.4449 99.6879 40.4449C99.6879 40.4449 99.6879 40.4449 99.6879 40.4449H99.6879H99.6879H99.6879H99.6879C99.6879 40.4449 99.6879 40.4449 99.6879 40.4449C99.6879 40.4449 99.6879 40.4449 99.6879 40.4449C99.6879 40.4449 99.6879 40.4449 99.6879 40.4449C99.6878 40.4449 99.6878 40.4449 99.6878 40.4449C99.6878 40.4449 99.6878 40.4449 99.6878 40.4449C99.6878 40.4449 99.6878 40.4449 99.6878 40.4449C99.6878 40.4449 99.6878 40.4449 99.6878 40.4449H99.6878H99.6878H99.6878H99.6878H99.6878C99.6878 40.4449 99.6878 40.4449 99.6878 40.4449C99.6878 40.4449 99.6878 40.4449 99.6878 40.4449C99.6878 40.4449 99.6878 40.4449 99.6878 40.4449C99.6878 40.4449 99.6878 40.4449 99.6878 40.4449C99.6878 40.4449 99.6878 40.4449 99.6878 40.4449C99.6878 40.4449 99.6878 40.4449 99.6878 40.4449C99.6878 40.4449 99.6878 40.4449 99.6878 40.4449C99.6878 40.4449 99.6878 40.4449 99.6878 40.4449C99.6878 40.4449 99.6878 40.4449 99.6878 40.4449C99.6878 40.4449 99.6878 40.4449 99.6878 40.4449C99.6878 40.4449 99.6878 40.4449 99.6878 40.4449H99.6878H99.6878H99.6878H99.6878H99.6877H99.6877H99.6877H99.6877C99.6877 40.4449 99.6877 40.4449 99.6877 40.4449C99.6877 40.4449 99.6877 40.4449 99.6877 40.4449C99.6877 40.4449 99.6877 40.4449 99.6877 40.4449C99.6877 40.4449 99.6877 40.4449 99.6877 40.4449C99.6877 40.4449 99.6877 40.4449 99.6877 40.4449C99.6877 40.4449 99.6877 40.4449 99.6877 40.4449C99.6877 40.4449 99.6877 40.4449 99.6877 40.4449C99.6877 40.4449 99.6877 40.4449 99.6877 40.4449C99.6877 40.4449 99.6877 40.4449 99.6877 40.4449C99.6877 40.4449 99.6877 40.4449 99.6877 40.4449C99.6877 40.4449 99.6877 40.4449 99.6877 40.4449C99.6877 40.4449 99.6877 40.4449 99.6877 40.4449C99.6877 40.4449 99.6877 40.4449 99.6877 40.4449C99.6877 40.4449 99.6877 40.4449 99.6877 40.4449C99.6877 40.4449 99.6877 40.4449 99.6877 40.4449C99.6877 40.4449 99.6877 40.4449 99.6877 40.4449C99.6877 40.4449 99.6877 40.4449 99.6877 40.4449C99.6877 40.4449 99.6877 40.4449 99.6877 40.4449H99.6877H99.6877H99.6877H99.6876H99.6876H99.6876H99.6876H99.6876H99.6876H99.6876H99.6876H99.6876H99.6876C99.6876 40.4449 99.6876 40.4449 99.6876 40.4449C99.6876 40.4449 99.6876 40.4449 99.6876 40.4449C99.6876 40.4449 99.6876 40.4449 99.6876 40.4449C99.6876 40.4449 99.6876 40.4449 99.6876 40.4449C99.6876 40.4449 99.6876 40.4449 99.6876 40.4449C99.6876 40.4449 99.6876 40.4449 99.6876 40.4449C99.6876 40.4449 99.6876 40.4449 99.6876 40.4449C99.6876 40.4449 99.6876 40.4449 99.6876 40.4449C99.6876 40.4449 99.6876 40.4449 99.6876 40.4449C99.6876 40.4449 99.6876 40.4449 99.6876 40.4449C99.6876 40.4449 99.6876 40.4449 99.6876 40.4449C99.6876 40.4449 99.6876 40.4449 99.6876 40.4449C99.6876 40.4449 99.6876 40.4449 99.6876 40.4449C99.6876 40.4449 99.6876 40.4449 99.6876 40.4449C99.6876 40.4449 99.6876 40.4449 99.6876 40.4449C99.6876 40.4449 99.6876 40.4449 99.6875 40.4449C99.6875 40.4449 99.6875 40.4449 99.6875 40.4449C99.6875 40.4449 99.6875 40.4449 99.6875 40.4449C99.6875 40.4449 99.6875 40.4449 99.6875 40.4449C99.6875 40.4449 99.6875 40.4449 99.6875 40.4449C99.6875 40.4449 99.6875 40.4449 99.6875 40.4449C99.6875 40.4449 99.6875 40.4449 99.6875 40.4449C99.6875 40.4449 99.6875 40.4449 99.6875 40.4449H99.6875H99.6875H99.6875H99.6875H99.6875H99.6875H99.6875H99.6875H99.6875C99.6875 40.4449 99.6875 40.4449 99.6875 40.4449C99.6875 40.4449 99.6875 40.4449 99.6875 40.4449C99.6875 40.4449 99.6875 40.4449 99.6875 40.4449C99.6875 40.4449 99.6875 40.4449 99.6875 40.4449C99.6875 40.4449 99.6875 40.4449 99.6875 40.4449C99.6875 40.4449 99.6875 40.4449 99.6875 40.4449C99.6875 40.4449 99.6875 40.4449 99.6875 40.4449C99.6875 40.4449 99.6875 40.4449 99.6875 40.4449C99.6875 40.4449 99.6875 40.4449 99.6875 40.4449C99.6875 40.4449 99.6875 40.4449 99.6874 40.4449C99.6874 40.4449 99.6874 40.4449 99.6874 40.4449C99.6874 40.4449 99.6874 40.4449 99.6874 40.4449C99.6874 40.4449 99.6874 40.4449 99.6874 40.4449C99.6874 40.4449 99.6874 40.4449 99.6874 40.4449H99.6874H99.6874H99.6874H99.6874H99.6874H99.6874C99.6874 40.4449 99.6874 40.4449 99.6874 40.4449C99.6874 40.4449 99.6874 40.4449 99.6874 40.4449C99.6874 40.4449 99.6874 40.4449 99.6874 40.4449C99.6874 40.4449 99.6874 40.4449 99.6874 40.4449C99.6874 40.4449 99.6874 40.4449 99.6874 40.4449C99.6874 40.4449 99.6874 40.4449 99.6874 40.4449C99.6874 40.4449 99.6874 40.4449 99.6874 40.4449C99.6874 40.4449 99.6874 40.4449 99.6874 40.4449C99.6874 40.4449 99.6874 40.4449 99.6874 40.4449H99.6874H99.6874H99.6874H99.6874C99.6874 40.4449 99.6874 40.4449 99.6874 40.4449C99.6873 40.4449 99.6873 40.4449 99.6873 40.4449C99.6873 40.4449 99.6873 40.4449 99.6873 40.4449C99.6873 40.4449 99.6873 40.4449 99.6873 40.4449C99.6873 40.4449 99.6873 40.4449 99.6873 40.4449C99.6873 40.4449 99.6873 40.4449 99.6873 40.4449C99.6873 40.4449 99.6873 40.4449 99.6873 40.4449H99.6873H99.6873H99.6873C99.6873 40.4449 99.6873 40.4449 99.6873 40.4449C99.6873 40.4449 99.6873 40.4449 99.6873 40.4449C99.6873 40.4449 99.6873 40.4449 99.6873 40.4449C99.6873 40.4449 99.6873 40.4449 99.6873 40.4449C99.6873 40.4449 99.6873 40.4449 99.6873 40.4449C99.6873 40.4449 99.6873 40.4449 99.6873 40.4449H99.6873H99.6873H99.6873C99.6873 40.4449 99.6873 40.4449 99.6873 40.4449C99.6873 40.4449 99.6873 40.4449 99.6873 40.4449C99.6873 40.4449 99.6873 40.4449 99.6873 40.4449C99.6873 40.4449 99.6873 40.4449 99.6873 40.4449H99.6873H99.6872H99.6872C99.6872 40.4449 99.6872 40.4449 99.6872 40.4449C99.6872 40.4449 99.6872 40.4449 99.6872 40.4449C99.6872 40.4449 99.6872 40.4449 99.6872 40.4449C99.6872 40.4449 99.6872 40.4449 99.6872 40.4449H99.6872H99.6872C99.6872 40.4449 99.6872 40.4449 99.6872 40.4449C99.6872 40.4449 99.6872 40.4449 99.6872 40.4449C99.6872 40.4449 99.6872 40.4449 99.6872 40.4449C99.6872 40.4449 99.6872 40.4449 99.6872 40.4449H99.6872H99.6872C99.6872 40.4449 99.6872 40.4449 99.6872 40.4449C99.6872 40.4449 99.6872 40.4449 99.6872 40.4449C99.6872 40.4449 99.6872 40.4449 99.6872 40.4449H99.6872H99.6872C99.6872 40.4449 99.6872 40.4449 99.6872 40.4449C99.6872 40.4449 99.6872 40.4449 99.6872 40.4449C99.6872 40.4449 99.6872 40.4449 99.6872 40.4449H99.6871H99.6871C99.6871 40.4449 99.6871 40.4449 99.6871 40.4449C99.6871 40.4449 99.6871 40.4449 99.6871 40.4449C99.6871 40.4449 99.6871 40.4449 99.6871 40.4449H99.6871C99.6871 40.4449 99.6871 40.4449 99.6871 40.4449C99.6871 40.4449 99.6871 40.4449 99.6871 40.4449C99.6871 40.4449 99.6871 40.4449 99.6871 40.4449H99.6871C99.6871 40.4449 99.6871 40.4449 99.6871 40.4449C99.6871 40.4449 99.6871 40.4449 99.6871 40.4449C99.6871 40.4449 99.6871 40.4449 99.6871 40.4449H99.6871C99.6871 40.4449 99.6871 40.4449 99.6871 40.4449C99.6871 40.4449 99.6871 40.4449 99.6871 40.4449C99.6871 40.4449 99.6871 40.4449 99.6871 40.4449H99.6871C99.6871 40.4449 99.6871 40.4449 99.6871 40.4449C99.6871 40.4449 99.6871 40.4449 99.6871 40.4449H99.6871H99.687C99.687 40.4449 99.687 40.4449 99.687 40.4449C99.687 40.4449 99.687 40.4449 99.687 40.4449H99.687C99.687 40.4449 99.687 40.4449 99.687 40.4449C99.687 40.4449 99.687 40.4449 99.687 40.4449H99.687C99.687 40.4449 99.687 40.4449 99.687 40.4449C99.687 40.4449 99.687 40.4449 99.687 40.4449H99.687C99.687 40.4449 99.687 40.4449 99.687 40.4449C99.687 40.4449 99.687 40.4449 99.687 40.4449H99.687C99.687 40.4449 99.687 40.4449 99.687 40.4449C99.687 40.4449 99.687 40.4449 99.687 40.4449H99.687C99.687 40.4449 99.687 40.4449 99.687 40.4449C99.687 40.4449 99.687 40.4449 99.687 40.4449H99.687C99.687 40.4449 99.687 40.4449 99.687 40.4449H99.6869C99.6869 40.4449 99.6869 40.4449 99.6869 40.4449C99.6869 40.4449 99.6869 40.4449 99.6869 40.4449H99.6869C99.6869 40.4449 99.6869 40.4449 99.6869 40.4449H99.6869H99.6869C99.6869 40.4449 99.6869 40.4449 99.6869 40.4449H99.6869C99.6869 40.4449 99.6869 40.4449 99.6869 40.4449H99.6869C99.6869 40.4449 99.6869 40.4449 99.6869 40.4449H99.6869H99.6869C99.6869 40.4449 99.6869 40.4449 99.6869 40.4449H99.6869C99.6869 40.4449 99.6869 40.4449 99.6869 40.4449H99.6869C99.6869 40.4449 99.6869 40.4449 99.6868 40.4449H99.6868C99.6868 40.4449 99.6868 40.4449 99.6868 40.4449H99.6868C99.6868 40.4449 99.6868 40.4449 99.6868 40.4449H99.6868C99.6868 40.4449 99.6868 40.4449 99.6868 40.4449H99.6868C99.6868 40.4449 99.6868 40.4449 99.6868 40.4449H99.6868C99.6868 40.4449 99.6868 40.4449 99.6868 40.4449H99.6868C99.6868 40.4449 99.6868 40.4449 99.6868 40.4449H99.6868C99.6868 40.4449 99.6868 40.4449 99.6868 40.4449H99.6868C99.6868 40.4449 99.6868 40.4449 99.6868 40.4449C99.6868 40.4449 99.6868 40.4449 99.6867 40.4449H99.6867C99.6867 40.4449 99.6867 40.4449 99.6867 40.4449H99.6867C99.6867 40.4449 99.6867 40.4449 99.6867 40.4449H99.6867C99.6867 40.4449 99.6867 40.4449 99.6867 40.4449C99.6867 40.4449 99.6867 40.4449 99.6867 40.4449H99.6867C99.6867 40.4449 99.6867 40.4449 99.6867 40.4449H99.6867C99.6867 40.4449 99.6867 40.4449 99.6867 40.4449C99.6867 40.4449 99.6867 40.4449 99.6867 40.4449H99.6867C99.6867 40.4449 99.6867 40.4449 99.6867 40.4449C99.6867 40.4449 99.6867 40.4449 99.6867 40.4449H99.6867C99.6866 40.4449 99.6866 40.4449 99.6866 40.4449C99.6866 40.4449 99.6866 40.4449 99.6866 40.4449H99.6866C99.6866 40.4449 99.6866 40.4449 99.6866 40.4449C99.6866 40.4449 99.6866 40.4449 99.6866 40.4449H99.6866C99.6866 40.4449 99.6866 40.4449 99.6866 40.4449C99.6866 40.4449 99.6866 40.4449 99.6866 40.4449C99.6866 40.4449 99.6866 40.4449 99.6866 40.4449H99.6866C99.6866 40.4449 99.6866 40.4449 99.6866 40.4449C99.6866 40.4449 99.6866 40.4449 99.6866 40.4449H99.6866C99.6866 40.4449 99.6866 40.4449 99.6866 40.4449C99.6866 40.4449 99.6866 40.4449 99.6866 40.4449C99.6866 40.4449 99.6866 40.4449 99.6865 40.4449C99.6865 40.4449 99.6865 40.4449 99.6865 40.4449H99.6865C99.6865 40.4449 99.6865 40.4449 99.6865 40.4449C99.6865 40.4449 99.6865 40.4449 99.6865 40.4449C99.6865 40.4449 99.6865 40.4449 99.6865 40.4449H99.6865C99.6865 40.4449 99.6865 40.4449 99.6865 40.4449C99.6865 40.4449 99.6865 40.4449 99.6865 40.4449C99.6865 40.4449 99.6865 40.4449 99.6865 40.4449C99.6865 40.4449 99.6865 40.4449 99.6865 40.4449C99.6865 40.4449 99.6865 40.4449 99.6865 40.4449H99.6865C99.6865 40.4449 99.6865 40.4449 99.6865 40.4449C99.6865 40.4449 99.6865 40.4449 99.6865 40.4449C99.6864 40.4449 99.6864 40.4449 99.6864 40.4449C99.6864 40.4449 99.6864 40.4449 99.6864 40.4449C99.6864 40.4449 99.6864 40.4449 99.6864 40.4449C99.6864 40.4449 99.6864 40.4449 99.6864 40.4449C99.6864 40.4449 99.6864 40.4449 99.6864 40.4449H99.6864C99.6864 40.4449 99.6864 40.4449 99.6864 40.4449C99.6864 40.4449 99.6864 40.4449 99.6864 40.4449C99.6864 40.4449 99.6864 40.4449 99.6864 40.4449C99.6864 40.4449 99.6864 40.4449 99.6864 40.4449C99.6864 40.4449 99.6864 40.4449 99.6864 40.4449C99.6864 40.4449 99.6864 40.4449 99.6864 40.4449C99.6864 40.4449 99.6864 40.4449 99.6864 40.4449C99.6864 40.4449 99.6864 40.4449 99.6863 40.4449C99.6863 40.4449 99.6863 40.4449 99.6863 40.4449C99.6863 40.4449 99.6863 40.4449 99.6863 40.4449C99.6863 40.4449 99.6863 40.4449 99.6863 40.4449C99.6863 40.4449 99.6863 40.4449 99.6863 40.4449C99.6863 40.4449 99.6863 40.4449 99.6863 40.4449C99.6863 40.4449 99.6863 40.4449 99.6863 40.4449C99.6863 40.4449 99.6863 40.4449 99.6863 40.4449C99.6863 40.4449 99.6863 40.4449 99.6863 40.4449C99.6863 40.4449 99.6863 40.4449 99.6863 40.4449C99.6863 40.4449 99.6863 40.4449 99.6863 40.4449V38.4449C99.6863 38.4449 99.6863 38.4449 99.6863 38.4449C99.6863 38.4449 99.6863 38.4449 99.6863 38.4449C99.6863 38.4449 99.6863 38.4449 99.6863 38.4449C99.6863 38.4449 99.6863 38.4449 99.6863 38.4449C99.6863 38.4449 99.6863 38.4449 99.6863 38.4449C99.6863 38.4449 99.6863 38.4449 99.6863 38.4449C99.6863 38.4449 99.6863 38.4449 99.6863 38.4449C99.6863 38.4449 99.6863 38.4449 99.6863 38.4449C99.6863 38.4449 99.6863 38.4449 99.6863 38.4449C99.6863 38.4449 99.6863 38.4449 99.6863 38.4449C99.6864 38.4449 99.6864 38.4449 99.6864 38.4449C99.6864 38.4449 99.6864 38.4449 99.6864 38.4449C99.6864 38.4449 99.6864 38.4449 99.6864 38.4449C99.6864 38.4449 99.6864 38.4449 99.6864 38.4449C99.6864 38.4449 99.6864 38.4449 99.6864 38.4449C99.6864 38.4449 99.6864 38.4449 99.6864 38.4449C99.6864 38.4449 99.6864 38.4449 99.6864 38.4449C99.6864 38.4449 99.6864 38.4449 99.6864 38.4449H99.6864C99.6864 38.4449 99.6864 38.4449 99.6864 38.4449C99.6864 38.4449 99.6864 38.4449 99.6864 38.4449C99.6864 38.4449 99.6864 38.4449 99.6864 38.4449C99.6864 38.4449 99.6864 38.4449 99.6864 38.4449C99.6864 38.4449 99.6864 38.4449 99.6865 38.4449C99.6865 38.4449 99.6865 38.4449 99.6865 38.4449C99.6865 38.4449 99.6865 38.4449 99.6865 38.4449H99.6865C99.6865 38.4449 99.6865 38.4449 99.6865 38.4449C99.6865 38.4449 99.6865 38.4449 99.6865 38.4449C99.6865 38.4449 99.6865 38.4449 99.6865 38.4449C99.6865 38.4449 99.6865 38.4449 99.6865 38.4449C99.6865 38.4449 99.6865 38.4449 99.6865 38.4449H99.6865C99.6865 38.4449 99.6865 38.4449 99.6865 38.4449C99.6865 38.4449 99.6865 38.4449 99.6865 38.4449C99.6865 38.4449 99.6865 38.4449 99.6865 38.4449H99.6865C99.6865 38.4449 99.6865 38.4449 99.6865 38.4449C99.6866 38.4449 99.6866 38.4449 99.6866 38.4449C99.6866 38.4449 99.6866 38.4449 99.6866 38.4449C99.6866 38.4449 99.6866 38.4449 99.6866 38.4449H99.6866C99.6866 38.4449 99.6866 38.4449 99.6866 38.4449C99.6866 38.4449 99.6866 38.4449 99.6866 38.4449H99.6866C99.6866 38.4449 99.6866 38.4449 99.6866 38.4449C99.6866 38.4449 99.6866 38.4449 99.6866 38.4449C99.6866 38.4449 99.6866 38.4449 99.6866 38.4449H99.6866C99.6866 38.4449 99.6866 38.4449 99.6866 38.4449C99.6866 38.4449 99.6866 38.4449 99.6866 38.4449H99.6866C99.6866 38.4449 99.6866 38.4449 99.6866 38.4449C99.6866 38.4449 99.6866 38.4449 99.6867 38.4449H99.6867C99.6867 38.4449 99.6867 38.4449 99.6867 38.4449C99.6867 38.4449 99.6867 38.4449 99.6867 38.4449H99.6867C99.6867 38.4449 99.6867 38.4449 99.6867 38.4449C99.6867 38.4449 99.6867 38.4449 99.6867 38.4449H99.6867C99.6867 38.4449 99.6867 38.4449 99.6867 38.4449H99.6867C99.6867 38.4449 99.6867 38.4449 99.6867 38.4449C99.6867 38.4449 99.6867 38.4449 99.6867 38.4449H99.6867C99.6867 38.4449 99.6867 38.4449 99.6867 38.4449H99.6867C99.6867 38.4449 99.6867 38.4449 99.6867 38.4449H99.6867C99.6868 38.4449 99.6868 38.4449 99.6868 38.4449C99.6868 38.4449 99.6868 38.4449 99.6868 38.4449H99.6868C99.6868 38.4449 99.6868 38.4449 99.6868 38.4449H99.6868C99.6868 38.4449 99.6868 38.4449 99.6868 38.4449H99.6868C99.6868 38.4449 99.6868 38.4449 99.6868 38.4449H99.6868C99.6868 38.4449 99.6868 38.4449 99.6868 38.4449H99.6868C99.6868 38.4449 99.6868 38.4449 99.6868 38.4449H99.6868C99.6868 38.4449 99.6868 38.4449 99.6868 38.4449H99.6868C99.6868 38.4449 99.6868 38.4449 99.6868 38.4449H99.6868C99.6869 38.4449 99.6869 38.4449 99.6869 38.4449H99.6869C99.6869 38.4449 99.6869 38.4449 99.6869 38.4449H99.6869C99.6869 38.4449 99.6869 38.4449 99.6869 38.4449H99.6869H99.6869C99.6869 38.4449 99.6869 38.4449 99.6869 38.4449H99.6869C99.6869 38.4449 99.6869 38.4449 99.6869 38.4449H99.6869C99.6869 38.4449 99.6869 38.4449 99.6869 38.4449H99.6869H99.6869C99.6869 38.4449 99.6869 38.4449 99.6869 38.4449H99.6869C99.6869 38.4449 99.6869 38.4449 99.6869 38.4449C99.6869 38.4449 99.6869 38.4449 99.6869 38.4449H99.687C99.687 38.4449 99.687 38.4449 99.687 38.4449H99.687C99.687 38.4449 99.687 38.4449 99.687 38.4449C99.687 38.4449 99.687 38.4449 99.687 38.4449H99.687C99.687 38.4449 99.687 38.4449 99.687 38.4449C99.687 38.4449 99.687 38.4449 99.687 38.4449H99.687C99.687 38.4449 99.687 38.4449 99.687 38.4449C99.687 38.4449 99.687 38.4449 99.687 38.4449H99.687C99.687 38.4449 99.687 38.4449 99.687 38.4449C99.687 38.4449 99.687 38.4449 99.687 38.4449H99.687C99.687 38.4449 99.687 38.4449 99.687 38.4449C99.687 38.4449 99.687 38.4449 99.687 38.4449H99.687C99.687 38.4449 99.687 38.4449 99.687 38.4449C99.687 38.4449 99.687 38.4449 99.687 38.4449H99.6871H99.6871C99.6871 38.4449 99.6871 38.4449 99.6871 38.4449C99.6871 38.4449 99.6871 38.4449 99.6871 38.4449H99.6871C99.6871 38.4449 99.6871 38.4449 99.6871 38.4449C99.6871 38.4449 99.6871 38.4449 99.6871 38.4449C99.6871 38.4449 99.6871 38.4449 99.6871 38.4449H99.6871C99.6871 38.4449 99.6871 38.4449 99.6871 38.4449C99.6871 38.4449 99.6871 38.4449 99.6871 38.4449C99.6871 38.4449 99.6871 38.4449 99.6871 38.4449H99.6871C99.6871 38.4449 99.6871 38.4449 99.6871 38.4449C99.6871 38.4449 99.6871 38.4449 99.6871 38.4449C99.6871 38.4449 99.6871 38.4449 99.6871 38.4449H99.6871C99.6871 38.4449 99.6871 38.4449 99.6871 38.4449C99.6871 38.4449 99.6871 38.4449 99.6871 38.4449C99.6871 38.4449 99.6871 38.4449 99.6871 38.4449H99.6871H99.6872C99.6872 38.4449 99.6872 38.4449 99.6872 38.4449C99.6872 38.4449 99.6872 38.4449 99.6872 38.4449C99.6872 38.4449 99.6872 38.4449 99.6872 38.4449H99.6872H99.6872C99.6872 38.4449 99.6872 38.4449 99.6872 38.4449C99.6872 38.4449 99.6872 38.4449 99.6872 38.4449C99.6872 38.4449 99.6872 38.4449 99.6872 38.4449H99.6872H99.6872C99.6872 38.4449 99.6872 38.4449 99.6872 38.4449C99.6872 38.4449 99.6872 38.4449 99.6872 38.4449C99.6872 38.4449 99.6872 38.4449 99.6872 38.4449C99.6872 38.4449 99.6872 38.4449 99.6872 38.4449H99.6872H99.6872C99.6872 38.4449 99.6872 38.4449 99.6872 38.4449C99.6872 38.4449 99.6872 38.4449 99.6872 38.4449C99.6872 38.4449 99.6872 38.4449 99.6872 38.4449C99.6872 38.4449 99.6872 38.4449 99.6872 38.4449H99.6872H99.6873H99.6873C99.6873 38.4449 99.6873 38.4449 99.6873 38.4449C99.6873 38.4449 99.6873 38.4449 99.6873 38.4449C99.6873 38.4449 99.6873 38.4449 99.6873 38.4449C99.6873 38.4449 99.6873 38.4449 99.6873 38.4449H99.6873H99.6873H99.6873C99.6873 38.4449 99.6873 38.4449 99.6873 38.4449C99.6873 38.4449 99.6873 38.4449 99.6873 38.4449C99.6873 38.4449 99.6873 38.4449 99.6873 38.4449C99.6873 38.4449 99.6873 38.4449 99.6873 38.4449C99.6873 38.4449 99.6873 38.4449 99.6873 38.4449C99.6873 38.4449 99.6873 38.4449 99.6873 38.4449H99.6873H99.6873H99.6873C99.6873 38.4449 99.6873 38.4449 99.6873 38.4449C99.6873 38.4449 99.6873 38.4449 99.6873 38.4449C99.6873 38.4449 99.6873 38.4449 99.6873 38.4449C99.6873 38.4449 99.6873 38.4449 99.6873 38.4449C99.6873 38.4449 99.6873 38.4449 99.6873 38.4449C99.6873 38.4449 99.6873 38.4449 99.6874 38.4449C99.6874 38.4449 99.6874 38.4449 99.6874 38.4449H99.6874H99.6874H99.6874H99.6874C99.6874 38.4449 99.6874 38.4449 99.6874 38.4449C99.6874 38.4449 99.6874 38.4449 99.6874 38.4449C99.6874 38.4449 99.6874 38.4449 99.6874 38.4449C99.6874 38.4449 99.6874 38.4449 99.6874 38.4449C99.6874 38.4449 99.6874 38.4449 99.6874 38.4449C99.6874 38.4449 99.6874 38.4449 99.6874 38.4449C99.6874 38.4449 99.6874 38.4449 99.6874 38.4449C99.6874 38.4449 99.6874 38.4449 99.6874 38.4449C99.6874 38.4449 99.6874 38.4449 99.6874 38.4449H99.6874H99.6874H99.6874H99.6874H99.6874H99.6874C99.6874 38.4449 99.6874 38.4449 99.6874 38.4449C99.6874 38.4449 99.6874 38.4449 99.6874 38.4449C99.6874 38.4449 99.6874 38.4449 99.6874 38.4449C99.6874 38.4449 99.6874 38.4449 99.6874 38.4449C99.6875 38.4449 99.6875 38.4449 99.6875 38.4449C99.6875 38.4449 99.6875 38.4449 99.6875 38.4449C99.6875 38.4449 99.6875 38.4449 99.6875 38.4449C99.6875 38.4449 99.6875 38.4449 99.6875 38.4449C99.6875 38.4449 99.6875 38.4449 99.6875 38.4449C99.6875 38.4449 99.6875 38.4449 99.6875 38.4449C99.6875 38.4449 99.6875 38.4449 99.6875 38.4449C99.6875 38.4449 99.6875 38.4449 99.6875 38.4449C99.6875 38.4449 99.6875 38.4449 99.6875 38.4449C99.6875 38.4449 99.6875 38.4449 99.6875 38.4449H99.6875H99.6875H99.6875H99.6875H99.6875H99.6875H99.6875H99.6875H99.6875C99.6875 38.4449 99.6875 38.4449 99.6875 38.4449C99.6875 38.4449 99.6875 38.4449 99.6875 38.4449C99.6875 38.4449 99.6875 38.4449 99.6875 38.4449C99.6875 38.4449 99.6875 38.4449 99.6875 38.4449C99.6875 38.4449 99.6875 38.4449 99.6875 38.4449C99.6875 38.4449 99.6875 38.4449 99.6875 38.4449C99.6875 38.4449 99.6875 38.4449 99.6875 38.4449C99.6876 38.4449 99.6876 38.4449 99.6876 38.4449C99.6876 38.4449 99.6876 38.4449 99.6876 38.4449C99.6876 38.4449 99.6876 38.4449 99.6876 38.4449C99.6876 38.4449 99.6876 38.4449 99.6876 38.4449C99.6876 38.4449 99.6876 38.4449 99.6876 38.4449C99.6876 38.4449 99.6876 38.4449 99.6876 38.4449C99.6876 38.4449 99.6876 38.4449 99.6876 38.4449C99.6876 38.4449 99.6876 38.4449 99.6876 38.4449C99.6876 38.4449 99.6876 38.4449 99.6876 38.4449C99.6876 38.4449 99.6876 38.4449 99.6876 38.4449C99.6876 38.4449 99.6876 38.4449 99.6876 38.4449C99.6876 38.4449 99.6876 38.4449 99.6876 38.4449C99.6876 38.4449 99.6876 38.4449 99.6876 38.4449C99.6876 38.4449 99.6876 38.4449 99.6876 38.4449C99.6876 38.4449 99.6876 38.4449 99.6876 38.4449C99.6876 38.4449 99.6876 38.4449 99.6876 38.4449H99.6876H99.6876H99.6876H99.6876H99.6876H99.6876H99.6876H99.6876H99.6876H99.6877H99.6877H99.6877H99.6877C99.6877 38.4449 99.6877 38.4449 99.6877 38.4449C99.6877 38.4449 99.6877 38.4449 99.6877 38.4449C99.6877 38.4449 99.6877 38.4449 99.6877 38.4449C99.6877 38.4449 99.6877 38.4449 99.6877 38.4449C99.6877 38.4449 99.6877 38.4449 99.6877 38.4449C99.6877 38.4449 99.6877 38.4449 99.6877 38.4449C99.6877 38.4449 99.6877 38.4449 99.6877 38.4449C99.6877 38.4449 99.6877 38.4449 99.6877 38.4449C99.6877 38.4449 99.6877 38.4449 99.6877 38.4449C99.6877 38.4449 99.6877 38.4449 99.6877 38.4449C99.6877 38.4449 99.6877 38.4449 99.6877 38.4449C99.6877 38.4449 99.6877 38.4449 99.6877 38.4449C99.6877 38.4449 99.6877 38.4449 99.6877 38.4449C99.6877 38.4449 99.6877 38.4449 99.6877 38.4449C99.6877 38.4449 99.6877 38.4449 99.6877 38.4449C99.6877 38.4449 99.6877 38.4449 99.6877 38.4449C99.6877 38.4449 99.6877 38.4449 99.6877 38.4449C99.6877 38.4449 99.6877 38.4449 99.6877 38.4449H99.6877H99.6877H99.6877H99.6878H99.6878H99.6878H99.6878H99.6878C99.6878 38.4449 99.6878 38.4449 99.6878 38.4449C99.6878 38.4449 99.6878 38.4449 99.6878 38.4449C99.6878 38.4449 99.6878 38.4449 99.6878 38.4449C99.6878 38.4449 99.6878 38.4449 99.6878 38.4449C99.6878 38.4449 99.6878 38.4449 99.6878 38.4449C99.6878 38.4449 99.6878 38.4449 99.6878 38.4449C99.6878 38.4449 99.6878 38.4449 99.6878 38.4449C99.6878 38.4449 99.6878 38.4449 99.6878 38.4449C99.6878 38.4449 99.6878 38.4449 99.6878 38.4449C99.6878 38.4449 99.6878 38.4449 99.6878 38.4449C99.6878 38.4449 99.6878 38.4449 99.6878 38.4449H99.6878H99.6878H99.6878H99.6878H99.6878C99.6878 38.4449 99.6878 38.4449 99.6878 38.4449C99.6878 38.4449 99.6878 38.4449 99.6878 38.4449C99.6878 38.4449 99.6878 38.4449 99.6878 38.4449C99.6878 38.4449 99.6878 38.4449 99.6879 38.4449C99.6879 38.4449 99.6879 38.4449 99.6879 38.4449C99.6879 38.4449 99.6879 38.4449 99.6879 38.4449C99.6879 38.4449 99.6879 38.4449 99.6879 38.4449H99.6879H99.6879H99.6879H99.6879C99.6879 38.4449 99.6879 38.4449 99.6879 38.4449C99.6879 38.4449 99.6879 38.4449 99.6879 38.4449C99.6879 38.4449 99.6879 38.4449 99.6879 38.4449C99.6879 38.4449 99.6879 38.4449 99.6879 38.4449C99.6879 38.4449 99.6879 38.4449 99.6879 38.4449C99.6879 38.4449 99.6879 38.4449 99.6879 38.4449H99.6879H99.6879H99.6879C99.6879 38.4449 99.6879 38.4449 99.6879 38.4449C99.6879 38.4449 99.6879 38.4449 99.6879 38.4449C99.6879 38.4449 99.6879 38.4449 99.6879 38.4449C99.6879 38.4449 99.6879 38.4449 99.6879 38.4449C99.6879 38.4449 99.6879 38.4449 99.6879 38.4449H99.6879H99.6879H99.688C99.688 38.4449 99.688 38.4449 99.688 38.4449C99.688 38.4449 99.688 38.4449 99.688 38.4449C99.688 38.4449 99.688 38.4449 99.688 38.4449C99.688 38.4449 99.688 38.4449 99.688 38.4449H99.688H99.688H99.688C99.688 38.4449 99.688 38.4449 99.688 38.4449C99.688 38.4449 99.688 38.4449 99.688 38.4449C99.688 38.4449 99.688 38.4449 99.688 38.4449C99.688 38.4449 99.688 38.4449 99.688 38.4449H99.688H99.688C99.688 38.4449 99.688 38.4449 99.688 38.4449C99.688 38.4449 99.688 38.4449 99.688 38.4449C99.688 38.4449 99.688 38.4449 99.688 38.4449H99.688H99.688C99.688 38.4449 99.688 38.4449 99.688 38.4449C99.688 38.4449 99.688 38.4449 99.688 38.4449C99.688 38.4449 99.688 38.4449 99.688 38.4449H99.688H99.6881C99.6881 38.4449 99.6881 38.4449 99.6881 38.4449C99.6881 38.4449 99.6881 38.4449 99.6881 38.4449C99.6881 38.4449 99.6881 38.4449 99.6881 38.4449H99.6881H99.6881C99.6881 38.4449 99.6881 38.4449 99.6881 38.4449C99.6881 38.4449 99.6881 38.4449 99.6881 38.4449C99.6881 38.4449 99.6881 38.4449 99.6881 38.4449H99.6881C99.6881 38.4449 99.6881 38.4449 99.6881 38.4449C99.6881 38.4449 99.6881 38.4449 99.6881 38.4449C99.6881 38.4449 99.6881 38.4449 99.6881 38.4449H99.6881C99.6881 38.4449 99.6881 38.4449 99.6881 38.4449C99.6881 38.4449 99.6881 38.4449 99.6881 38.4449C99.6881 38.4449 99.6881 38.4449 99.6881 38.4449H99.6881C99.6881 38.4449 99.6881 38.4449 99.6881 38.4449C99.6881 38.4449 99.6881 38.4449 99.6881 38.4449H99.6881H99.6882C99.6882 38.4449 99.6882 38.4449 99.6882 38.4449C99.6882 38.4449 99.6882 38.4449 99.6882 38.4449H99.6882C99.6882 38.4449 99.6882 38.4449 99.6882 38.4449C99.6882 38.4449 99.6882 38.4449 99.6882 38.4449H99.6882C99.6882 38.4449 99.6882 38.4449 99.6882 38.4449C99.6882 38.4449 99.6882 38.4449 99.6882 38.4449H99.6882H99.6882C99.6882 38.4449 99.6882 38.4449 99.6882 38.4449H99.6882H99.6882C99.6882 38.4449 99.6882 38.4449 99.6882 38.4449H99.6882H99.6882C99.6882 38.4449 99.6882 38.4449 99.6882 38.4449H99.6882C99.6882 38.4449 99.6882 38.4449 99.6882 38.4449C99.6883 38.4449 99.6883 38.4449 99.6883 38.4449H99.6883C99.6883 38.4449 99.6883 38.4449 99.6883 38.4449H99.6883H99.6883C99.6883 38.4449 99.6883 38.4449 99.6883 38.4449H99.6883C99.6883 38.4449 99.6883 38.4449 99.6883 38.4449C99.6883 38.4449 99.6883 38.4449 99.6883 38.4449H99.6883C99.6883 38.4449 99.6883 38.4449 99.6883 38.4449H99.6883C99.6883 38.4449 99.6883 38.4449 99.6883 38.4449H99.6883C99.6883 38.4449 99.6883 38.4449 99.6883 38.4449C99.6883 38.4449 99.6883 38.4449 99.6883 38.4449H99.6883C99.6883 38.4449 99.6883 38.4449 99.6883 38.4449H99.6884C99.6884 38.4449 99.6884 38.4449 99.6884 38.4449H99.6884C99.6884 38.4449 99.6884 38.4449 99.6884 38.4449H99.6884C99.6884 38.4449 99.6884 38.4449 99.6884 38.4449H99.6884C99.6884 38.4449 99.6884 38.4449 99.6884 38.4449H99.6884C99.6884 38.4449 99.6884 38.4449 99.6884 38.4449H99.6884C99.6884 38.4449 99.6884 38.4449 99.6884 38.4449H99.6884C99.6884 38.4449 99.6884 38.4449 99.6884 38.4449H99.6884C99.6884 38.4449 99.6884 38.4449 99.6884 38.4449H99.6884C99.6884 38.4449 99.6884 38.4449 99.6884 38.4449H99.6885C99.6885 38.4449 99.6885 38.4449 99.6885 38.4449C99.6885 38.4449 99.6885 38.4449 99.6885 38.4449H99.6885C99.6885 38.4449 99.6885 38.4449 99.6885 38.4449H99.6885C99.6885 38.4449 99.6885 38.4449 99.6885 38.4449C99.6885 38.4449 99.6885 38.4449 99.6885 38.4449H99.6885C99.6885 38.4449 99.6885 38.4449 99.6885 38.4449H99.6885C99.6885 38.4449 99.6885 38.4449 99.6885 38.4449C99.6885 38.4449 99.6885 38.4449 99.6885 38.4449H99.6885C99.6885 38.4449 99.6885 38.4449 99.6885 38.4449C99.6885 38.4449 99.6885 38.4449 99.6885 38.4449H99.6886C99.6886 38.4449 99.6886 38.4449 99.6886 38.4449C99.6886 38.4449 99.6886 38.4449 99.6886 38.4449H99.6886C99.6886 38.4449 99.6886 38.4449 99.6886 38.4449C99.6886 38.4449 99.6886 38.4449 99.6886 38.4449H99.6886C99.6886 38.4449 99.6886 38.4449 99.6886 38.4449C99.6886 38.4449 99.6886 38.4449 99.6886 38.4449H99.6886C99.6886 38.4449 99.6886 38.4449 99.6886 38.4449C99.6886 38.4449 99.6886 38.4449 99.6886 38.4449C99.6886 38.4449 99.6886 38.4449 99.6886 38.4449H99.6886C99.6886 38.4449 99.6886 38.4449 99.6886 38.4449C99.6886 38.4449 99.6886 38.4449 99.6887 38.4449C99.6887 38.4449 99.6887 38.4449 99.6887 38.4449H99.6887C99.6887 38.4449 99.6887 38.4449 99.6887 38.4449C99.6887 38.4449 99.6887 38.4449 99.6887 38.4449C99.6887 38.4449 99.6887 38.4449 99.6887 38.4449H99.6887C99.6887 38.4449 99.6887 38.4449 99.6887 38.4449C99.6887 38.4449 99.6887 38.4449 99.6887 38.4449C99.6887 38.4449 99.6887 38.4449 99.6887 38.4449C99.6887 38.4449 99.6887 38.4449 99.6887 38.4449H99.6887C99.6887 38.4449 99.6887 38.4449 99.6887 38.4449C99.6887 38.4449 99.6887 38.4449 99.6887 38.4449C99.6887 38.4449 99.6887 38.4449 99.6887 38.4449C99.6888 38.4449 99.6888 38.4449 99.6888 38.4449C99.6888 38.4449 99.6888 38.4449 99.6888 38.4449C99.6888 38.4449 99.6888 38.4449 99.6888 38.4449H99.6888C99.6888 38.4449 99.6888 38.4449 99.6888 38.4449C99.6888 38.4449 99.6888 38.4449 99.6888 38.4449C99.6888 38.4449 99.6888 38.4449 99.6888 38.4449C99.6888 38.4449 99.6888 38.4449 99.6888 38.4449C99.6888 38.4449 99.6888 38.4449 99.6888 38.4449C99.6888 38.4449 99.6888 38.4449 99.6888 38.4449C99.6888 38.4449 99.6888 38.4449 99.6888 38.4449C99.6888 38.4449 99.6888 38.4449 99.6888 38.4449C99.6888 38.4449 99.6888 38.4449 99.6888 38.4449C99.6888 38.4449 99.6888 38.4449 99.6889 38.4449C99.6889 38.4449 99.6889 38.4449 99.6889 38.4449C99.6889 38.4449 99.6889 38.4449 99.6889 38.4449C99.6889 38.4449 99.6889 38.4449 99.6889 38.4449C99.6889 38.4449 99.6889 38.4449 99.6889 38.4449H99.6889C99.6889 38.4449 99.6889 38.4449 99.6889 38.4449C99.6889 38.4449 99.6889 38.4449 99.6889 38.4449C99.6889 38.4449 99.6889 38.4449 99.6889 38.4449C99.6889 38.4449 99.6889 38.4449 99.6889 38.4449C99.6889 38.4449 99.6889 38.4449 99.6889 38.4449C99.6889 38.4449 99.6889 38.4449 99.6889 38.4449C99.6889 38.4449 99.6889 38.4449 99.6889 38.4449V40.4449ZM99.7711 40.4413C99.381 40.4745 98.9859 40.4902 98.5916 40.4902V38.4902C98.9333 38.4902 99.2716 38.4766 99.6014 38.4485L99.7711 40.4413Z" fill="#5111C0" mask="url(#path-33-inside-2_2_1544)"/>
<path d="M79.6992 74.8164V74.8151V74.8164ZM79.7379 74.7004V74.6991C79.7379 74.7004 79.7379 74.7004 79.7379 74.7004ZM79.7512 74.6631C79.7512 74.6617 79.7512 74.6604 79.7525 74.659C79.7512 74.6604 79.7512 74.6617 79.7512 74.6631ZM79.7646 74.623C79.7646 74.6217 79.7646 74.6217 79.7659 74.6204C79.7659 74.6217 79.7646 74.623 79.7646 74.623ZM79.7779 74.5831C79.7792 74.5831 79.7792 74.5817 79.7792 74.5817C79.7792 74.5831 79.7792 74.5831 79.7779 74.5831ZM79.8059 74.5071C79.8059 74.5057 79.8072 74.5044 79.8072 74.5031C79.8072 74.5044 79.8059 74.5057 79.8059 74.5071ZM79.8205 74.4684C79.8205 74.4671 79.8219 74.4644 79.8219 74.4631C79.8219 74.4644 79.8205 74.4671 79.8205 74.4684ZM79.8352 74.4284C79.8352 74.4271 79.8366 74.4257 79.8366 74.423C79.8366 74.4244 79.8352 74.4271 79.8352 74.4284ZM89.7965 48.0751C89.7965 48.0737 89.7965 48.0737 89.7965 48.0737C89.7965 48.0737 89.7965 48.0737 89.7965 48.0751ZM89.8139 48.0297C89.8139 48.0284 89.8139 48.0284 89.8139 48.0284V48.0297Z" fill="#5111C0"/>
<path d="M81.9389 80.7695C79.6255 80.2842 78.6642 77.9602 79.7002 74.8162V74.8149C79.7122 74.7775 79.7255 74.7389 79.7389 74.7002C79.7389 74.7002 79.7389 74.7002 79.7389 74.6989C79.7429 74.6869 79.7469 74.6749 79.7522 74.6629C79.7522 74.6615 79.7522 74.6602 79.7535 74.6589C79.7575 74.6469 79.7615 74.6349 79.7655 74.6229C79.7655 74.6229 79.7669 74.6215 79.7669 74.6202C79.7709 74.6082 79.7749 74.5962 79.7789 74.5829C79.7802 74.5829 79.7802 74.5829 79.7802 74.5815C79.7829 74.5762 79.7842 74.5709 79.7869 74.5642C78.9429 76.9202 79.2055 78.8362 80.3002 79.9135L80.7655 79.5349C81.0415 80.0549 81.4375 80.4722 81.9389 80.7695ZM79.7895 74.5535C79.7909 74.5508 79.7922 74.5482 79.7935 74.5442C79.7949 74.5402 79.7962 74.5375 79.7975 74.5349C79.7949 74.5415 79.7922 74.5482 79.7895 74.5535ZM79.8029 74.5175C79.8042 74.5135 79.8055 74.5109 79.8069 74.5069C79.8069 74.5055 79.8082 74.5042 79.8082 74.5029L79.8096 74.5015C79.8069 74.5069 79.8055 74.5122 79.8029 74.5175ZM79.8202 74.4695C79.8215 74.4695 79.8215 74.4682 79.8215 74.4682C79.8215 74.4669 79.8229 74.4642 79.8229 74.4629C79.8242 74.4615 79.8242 74.4589 79.8255 74.4575C79.8242 74.4615 79.8229 74.4655 79.8202 74.4695ZM79.8349 74.4335C79.8349 74.4322 79.8362 74.4295 79.8362 74.4282C79.8362 74.4269 79.8375 74.4242 79.8375 74.4229C79.8375 74.4229 79.8389 74.4229 79.8389 74.4215C79.8375 74.4255 79.8362 74.4295 79.8349 74.4335Z" fill="#5111C0"/>
<path d="M89.918 47.7695C89.918 47.7695 89.918 47.7695 89.918 47.7682C90.0406 47.4749 90.1766 47.1829 90.326 46.8935C90.1766 47.1829 90.0406 47.4749 89.918 47.7695Z" fill="#5111C0"/>
<path d="M79.8516 74.3867L89.7796 48.1187C89.7849 48.104 89.7902 48.0894 89.7969 48.0747C89.7969 48.0734 89.7969 48.0734 89.7969 48.0734C89.8022 48.0587 89.8076 48.0441 89.8143 48.0294V48.0281C89.8476 47.9414 89.8822 47.8547 89.9182 47.7681C89.9182 47.7694 89.9182 47.7694 89.9182 47.7694C89.8702 47.8854 89.8236 48.0014 89.7796 48.1187L79.8516 74.3867Z" fill="#5111C0"/>
<path d="M90.3281 46.8828C90.3335 46.8735 90.3388 46.8628 90.3441 46.8521C90.3388 46.8628 90.3335 46.8721 90.3281 46.8828ZM90.3535 46.8335C90.3575 46.8268 90.3601 46.8215 90.3641 46.8148C90.3601 46.8215 90.3575 46.8268 90.3535 46.8335ZM90.3788 46.7855C90.3815 46.7815 90.3828 46.7775 90.3854 46.7735C90.3828 46.7775 90.3815 46.7815 90.3788 46.7855ZM90.4041 46.7375C90.4055 46.7348 90.4068 46.7335 90.4081 46.7308C90.4068 46.7335 90.4055 46.7348 90.4041 46.7375Z" fill="#5111C0"/>
<path d="M80.3016 79.9121C79.2069 78.8348 78.9442 76.9188 79.7882 74.5628C79.7882 74.5601 79.7896 74.5561 79.7909 74.5521C79.7936 74.5467 79.7963 74.5401 79.7989 74.5334C79.8003 74.5268 79.8029 74.5214 79.8043 74.5161C79.8069 74.5107 79.8083 74.5054 79.8109 74.5001C79.8149 74.4894 79.8189 74.4788 79.8216 74.4681C79.8242 74.4641 79.8256 74.4601 79.8269 74.4561C79.8296 74.4481 79.8323 74.4401 79.8363 74.4321C79.8376 74.4281 79.8389 74.4241 79.8403 74.4201C79.8443 74.4081 79.8482 74.3974 79.8536 74.3854L89.7816 48.1174C89.8256 48.0001 89.8722 47.8841 89.9202 47.7681C90.0429 47.4734 90.1789 47.1814 90.3282 46.8921C90.3296 46.8894 90.3309 46.8867 90.3323 46.8827C90.3376 46.8721 90.3429 46.8627 90.3483 46.8521C90.3523 46.8454 90.3549 46.8401 90.3576 46.8334C90.3616 46.8268 90.3643 46.8214 90.3683 46.8148C90.3723 46.8054 90.3789 46.7947 90.3829 46.7854C90.3856 46.7814 90.3869 46.7774 90.3896 46.7734C90.3962 46.7614 90.4016 46.7494 90.4083 46.7374C90.4096 46.7348 90.4109 46.7334 90.4123 46.7308C92.1643 43.4334 95.5109 40.5468 98.6522 39.6681C95.4616 41.1348 92.3376 44.3561 91.0483 47.7681L80.8869 74.6521C80.1322 76.6494 80.1416 78.3534 80.7669 79.5334L80.3016 79.9121Z" fill="#4A0DB4"/>
<path d="M62.9909 62.9813L33.9389 58.1013C29.3203 57.3267 24.6376 59.0667 21.6483 62.672L3.02558 85.1267C0.0295827 88.74 -0.811759 93.676 0.817575 98.0773L10.9283 125.385C12.5656 129.807 16.4456 133.012 21.0963 133.785L50.0323 138.593C54.6443 139.36 59.3163 137.619 62.3016 134.02L80.9909 111.484C83.9869 107.871 84.8283 102.932 83.1976 98.5307L73.1363 71.3747C71.5003 66.9627 67.6309 63.7613 62.9909 62.9813Z" fill="#D2A33B"/>
<path d="M50.6629 138.854L20.4602 133.707C16.6562 133.059 12.3176 129.147 10.7696 124.968L0.972239 98.5271C-0.575761 94.3484 1.25356 91.4871 5.05756 92.1351L35.2602 97.2818C39.0642 97.9298 43.4029 101.842 44.9509 106.02L54.7482 132.462C56.2962 136.64 54.4669 139.502 50.6629 138.854Z" fill="#F6C55A"/>
<path d="M51.6872 138.945C51.3659 138.945 51.0259 138.916 50.6672 138.855L20.4646 133.708C16.6605 133.06 12.3219 129.148 10.7739 124.969L0.976563 98.528C0.27523 96.636 0.273881 95.0186 0.827214 93.8693L54.2565 138.016C53.6405 138.609 52.7712 138.945 51.6872 138.945Z" fill="#F6C55A"/>
<path d="M81.3913 111L61.9127 134.487C59.4594 137.444 56.2207 136.47 54.6794 132.308L44.922 105.975C43.3807 101.814 44.1193 96.0418 46.5727 93.0845L66.0513 69.5965C68.5047 66.6391 71.7433 67.6138 73.2847 71.7752L83.042 98.1085C84.5833 102.27 83.8447 108.042 81.3913 111Z" fill="#F6C55A"/>
<path d="M54.71 132.395C54.7087 132.393 54.7087 132.391 54.7073 132.388C54.7087 132.391 54.7087 132.393 54.71 132.395ZM54.6993 132.367C54.698 132.363 54.6966 132.36 54.6953 132.356C54.6966 132.36 54.698 132.363 54.6993 132.367Z" fill="#5BC6D8"/>
<path d="M44.7981 105.623C43.4235 101.494 44.1875 95.959 46.5728 93.0844C44.1888 95.959 43.4235 101.494 44.7981 105.623Z" fill="#D2A33B"/>
<path d="M54.6889 132.338C54.6849 132.327 54.6809 132.318 54.6782 132.309C54.6809 132.318 54.6849 132.327 54.6889 132.338ZM44.8555 105.793C44.8355 105.737 44.8169 105.681 44.7969 105.623C44.8169 105.681 44.8355 105.737 44.8555 105.793Z" fill="#5BC6D8"/>
<path d="M58.7485 135.592C57.5019 135.112 56.3752 133.833 55.6338 131.83L45.6485 104.881C44.3819 101.461 44.6232 96.9798 46.0658 93.7785C44.0578 96.8318 43.5098 101.954 44.8565 105.793C44.8365 105.737 44.8178 105.681 44.7978 105.624C43.4232 101.494 44.1885 95.9598 46.5725 93.0851L46.7018 92.9291C46.8378 92.7891 46.9685 92.6478 47.0952 92.5038C47.0965 92.5025 47.0965 92.5011 47.0978 92.4998C47.1378 92.4545 47.1765 92.4091 47.2152 92.3638C47.2179 92.3611 47.2205 92.3585 47.2232 92.3545C47.2352 92.3411 47.2458 92.3278 47.2578 92.3145C47.2738 92.2945 47.2898 92.2758 47.3058 92.2571L47.4045 92.1385C47.4032 92.1385 47.4032 92.1398 47.4032 92.1398L65.3059 70.5518C65.4965 70.3225 65.6712 70.0931 65.8298 69.8651L66.0512 69.5971C67.0072 68.4451 68.0818 67.8931 69.1285 67.8931C69.5472 67.8931 69.9632 67.9825 70.3632 68.1558L58.7485 135.592ZM44.9218 105.976C44.9165 105.962 44.9112 105.948 44.9058 105.933C44.9112 105.948 44.9165 105.961 44.9218 105.976ZM44.9045 105.929C44.9005 105.916 44.8952 105.902 44.8898 105.888C44.8952 105.902 44.9005 105.916 44.9045 105.929ZM44.8885 105.884C44.8832 105.87 44.8778 105.856 44.8738 105.842C44.8778 105.856 44.8832 105.87 44.8885 105.884ZM44.8725 105.838C44.8672 105.824 44.8618 105.809 44.8565 105.794C44.8618 105.809 44.8672 105.824 44.8725 105.838Z" fill="#F6C55A"/>
<path d="M62.1023 104.308C62.9449 106.58 62.3649 109.945 60.8089 111.823C59.2516 113.7 57.3063 113.379 56.4649 111.107C55.6223 108.833 56.2023 105.469 57.7596 103.592C59.3156 101.715 61.2609 102.035 62.1023 104.308Z" fill="#262B3B"/>
<path d="M71.5007 92.9775C72.3434 95.2508 71.7634 98.6148 70.2074 100.492C68.6501 102.369 66.7047 102.05 65.8634 99.7762C65.0207 97.5042 65.6007 94.1388 67.1567 92.2615C68.7141 90.3842 70.6594 90.7055 71.5007 92.9775Z" fill="#262B3B"/>
<path d="M65.7052 114.036C66.5465 116.309 65.9679 119.673 64.4105 121.551C62.8532 123.428 60.9079 123.108 60.0665 120.835C59.2239 118.563 59.8039 115.197 61.3599 113.32C62.9172 111.443 64.8625 111.763 65.7052 114.036Z" fill="#262B3B"/>
<path d="M75.1023 102.704C75.945 104.976 75.365 108.342 73.809 110.219C72.2516 112.096 70.3063 111.775 69.465 109.503C68.6223 107.23 69.2023 103.866 70.7583 101.988C72.3156 100.111 74.261 100.431 75.1023 102.704Z" fill="#262B3B"/>
<path d="M58.4968 94.581C59.3395 96.8544 58.7595 100.218 57.2035 102.096C55.6462 103.973 53.7008 103.653 52.8595 101.38C52.0168 99.1077 52.5968 95.7423 54.1528 93.865C55.7102 91.9877 57.6555 92.309 58.4968 94.581Z" fill="#262B3B"/>
<path d="M67.8953 83.2509C68.7379 85.5229 68.1579 88.8883 66.6019 90.7656C65.0446 92.6429 63.0993 92.3229 62.2579 90.0496C61.4153 87.7763 61.9953 84.4123 63.5513 82.5349C65.1086 80.6576 67.0539 80.9776 67.8953 83.2509Z" fill="#262B3B"/>
<path d="M59.6491 102.39C60.2171 102.671 60.7064 103.254 61.0317 104.131C61.8731 106.403 61.2944 109.769 59.7371 111.646C59.1357 112.371 58.4757 112.765 57.8438 112.849C58.7477 113.297 59.8491 112.977 60.8064 111.823C62.3624 109.946 62.9424 106.581 62.0997 104.309C61.5837 102.914 60.6517 102.258 59.6491 102.39Z" fill="#0C1121"/>
<path d="M69.0475 91.0573C69.6155 91.34 70.1048 91.9226 70.4302 92.7986C71.2715 95.072 70.6928 98.436 69.1355 100.313C68.5342 101.04 67.8742 101.433 67.2422 101.516C68.1462 101.965 69.2475 101.644 70.2049 100.491C71.7608 98.6133 72.3408 95.2493 71.4982 92.976C70.9822 91.5826 70.0502 90.9266 69.0475 91.0573Z" fill="#0C1121"/>
<path d="M63.2545 112.116C63.8225 112.399 64.3119 112.982 64.6372 113.858C65.4785 116.131 64.8999 119.495 63.3425 121.372C62.7412 122.099 62.0812 122.492 61.4492 122.575C62.3532 123.023 63.4545 122.703 64.4119 121.55C65.9692 119.672 66.5479 116.308 65.7065 114.035C65.1892 112.64 64.2572 111.986 63.2545 112.116Z" fill="#0C1121"/>
<path d="M72.653 100.786C73.221 101.068 73.7103 101.65 74.0356 102.528C74.8783 104.8 74.2983 108.165 72.741 110.042C72.1396 110.768 71.4797 111.161 70.8477 111.245C71.7517 111.693 72.853 111.373 73.8103 110.22C75.3663 108.342 75.9463 104.977 75.1036 102.705C74.5876 101.31 73.6556 100.654 72.653 100.786Z" fill="#0C1121"/>
<path d="M56.0475 92.6641C56.6155 92.9454 57.1048 93.5281 57.4302 94.4041C58.2715 96.6774 57.6928 100.041 56.1355 101.919C55.5342 102.645 54.8742 103.039 54.2422 103.121C55.1462 103.571 56.2475 103.249 57.2049 102.096C58.7608 100.219 59.3408 96.8548 58.4982 94.5814C57.9822 93.1881 57.0502 92.5321 56.0475 92.6641Z" fill="#0C1121"/>
<path d="M65.446 81.3313C66.014 81.6126 66.5033 82.1953 66.8286 83.0726C67.6699 85.346 67.0913 88.71 65.534 90.5873C64.9326 91.3126 64.2726 91.7073 63.6406 91.79C64.5446 92.238 65.646 91.918 66.6033 90.7646C68.1593 88.8873 68.7393 85.522 67.8966 83.25C67.3806 81.8553 66.4486 81.1993 65.446 81.3313Z" fill="#0C1121"/>
<mask id="path-61-inside-3_2_1544" fill="white">
<path d="M35.2663 97.2933L5.06363 92.148C1.25963 91.5 0.482291 88.1933 3.32629 84.7639L21.3263 63.0586C24.1703 59.6293 29.561 57.3733 33.365 58.0213L63.5676 63.1679C67.3716 63.8159 68.149 67.1226 65.305 70.5519L47.305 92.2573C44.461 95.6866 39.0703 97.9413 35.2663 97.2933Z"/>
</mask>
<path d="M35.2663 97.2933L5.06363 92.148C1.25963 91.5 0.482291 88.1933 3.32629 84.7639L21.3263 63.0586C24.1703 59.6293 29.561 57.3733 33.365 58.0213L63.5676 63.1679C67.3716 63.8159 68.149 67.1226 65.305 70.5519L47.305 92.2573C44.461 95.6866 39.0703 97.9413 35.2663 97.2933Z" fill="#F6C55A"/>
<path d="M5.06363 92.148L5.23156 91.1622L5.23157 91.1622L5.06363 92.148ZM3.32629 84.7639L4.09604 85.4023L4.09603 85.4023L3.32629 84.7639ZM21.3263 63.0586L20.5565 62.4203L20.5566 62.4202L21.3263 63.0586ZM33.365 58.0213L33.5329 57.0355L33.5329 57.0355L33.365 58.0213ZM63.5676 63.1679L63.3997 64.1537L63.3996 64.1537L63.5676 63.1679ZM65.305 70.5519L64.5352 69.9136L64.5352 69.9136L65.305 70.5519ZM47.305 92.2573L48.0747 92.8956L48.0747 92.8956L47.305 92.2573ZM35.0984 98.2791L4.89569 93.1338L5.23157 91.1622L35.4342 96.3075L35.0984 98.2791ZM4.8957 93.1338C2.72269 92.7636 1.16084 91.5658 0.728527 89.7279C0.314211 87.9665 1.0291 85.9674 2.55655 84.1256L4.09603 85.4023C2.77948 86.9898 2.46104 88.3587 2.67539 89.27C2.87175 90.1048 3.60056 90.8843 5.23156 91.1622L4.8957 93.1338ZM2.55654 84.1256L20.5565 62.4203L22.096 63.6969L4.09604 85.4023L2.55654 84.1256ZM20.5566 62.4202C22.0992 60.5601 24.2996 59.0509 26.5996 58.0884C28.8908 57.1297 31.3869 56.6699 33.5329 57.0355L33.197 59.0071C31.539 58.7246 29.4378 59.0688 27.3716 59.9334C25.3144 60.7943 23.3974 62.1277 22.096 63.697L20.5566 62.4202ZM33.5329 57.0355L63.7356 62.1822L63.3996 64.1537L33.197 59.0071L33.5329 57.0355ZM63.7356 62.1821C65.9086 62.5523 67.4704 63.7501 67.9027 65.588C68.317 67.3493 67.6022 69.3485 66.0747 71.1903L64.5352 69.9136C65.8518 68.3261 66.1702 66.9572 65.9559 66.0459C65.7595 65.2111 65.0307 64.4316 63.3997 64.1537L63.7356 62.1821ZM66.0747 71.1903L48.0747 92.8956L46.5352 91.6189L64.5352 69.9136L66.0747 71.1903ZM48.0747 92.8956C46.532 94.7558 44.3316 96.2647 42.0315 97.2268C39.7403 98.1852 37.2442 98.6446 35.0984 98.2791L35.4342 96.3075C37.0924 96.5899 39.1936 96.246 41.2597 95.3817C43.317 94.5212 45.2339 93.1881 46.5352 91.6189L48.0747 92.8956Z" fill="#D2A33B" mask="url(#path-61-inside-3_2_1544)"/>
<path d="M54.4826 70.2264C55.0906 71.8424 53.3106 73.9904 50.5039 75.0237C47.6986 76.0584 44.9306 75.5864 44.3226 73.9704C43.7133 72.3557 45.4946 70.2077 48.2999 69.173C51.1066 68.1397 53.8746 68.6117 54.4826 70.2264Z" fill="#404555"/>
<path d="M24.3103 81.3449C24.9197 82.9596 23.1383 85.1076 20.333 86.1409C17.5263 87.1756 14.7583 86.7035 14.1503 85.0875C13.5423 83.4729 15.3223 81.3249 18.129 80.2915C20.9343 79.2569 23.7023 79.7289 24.3103 81.3449Z" fill="#404555"/>
<path d="M48.6746 70.1803C51.188 69.2549 53.6653 69.5403 54.5933 70.7696C54.5813 70.5843 54.5493 70.4016 54.4826 70.2256C53.8746 68.6109 51.1066 68.1389 48.2999 69.1723C45.4946 70.2069 43.7133 72.3549 44.3226 73.9696C44.3853 74.1376 44.4773 74.2909 44.5853 74.4336C44.4919 72.9083 46.1733 71.1029 48.6746 70.1803Z" fill="#0C1121"/>
<path d="M18.5023 81.2994C21.0156 80.3727 23.493 80.6581 24.421 81.8887C24.409 81.7021 24.377 81.5194 24.3103 81.3448C23.7023 79.7288 20.9343 79.2567 18.129 80.2914C15.3223 81.3247 13.5423 83.4727 14.1503 85.0874C14.2143 85.2567 14.3063 85.4087 14.413 85.5527C14.3197 84.0261 16.001 82.2207 18.5023 81.2994Z" fill="#0C1121"/>
<path d="M32.2353 116.24C33.0806 118.523 31.8086 120.039 29.3939 119.628C26.9806 119.216 24.3379 117.034 23.4926 114.751C22.6459 112.468 23.9179 110.952 26.3326 111.363C28.7459 111.775 31.39 113.959 32.2353 116.24Z" fill="#262B3B"/>
<path d="M30.2942 118.576C27.8796 118.164 25.2369 115.981 24.3915 113.699C24.0889 112.88 24.0609 112.163 24.2582 111.595C23.2889 112.113 22.9422 113.268 23.4915 114.749C24.3369 117.032 26.9795 119.215 29.3929 119.627C30.9422 119.889 32.0156 119.359 32.3676 118.343C31.8436 118.623 31.1409 118.72 30.2942 118.576Z" fill="#0C1121"/>
<path d="M46.7031 92.9297C46.8391 92.7897 46.9698 92.6484 47.0965 92.5044C46.9698 92.6484 46.8391 92.7897 46.7031 92.9297Z" fill="#65CEE0"/>
<path d="M47.0977 92.5C47.1377 92.4547 47.1763 92.4093 47.215 92.364C47.1763 92.4093 47.1377 92.4547 47.0977 92.5ZM47.223 92.3547C47.235 92.3413 47.2456 92.328 47.2576 92.3147C47.2456 92.328 47.235 92.3413 47.223 92.3547ZM47.3057 92.2573L47.403 92.14C47.403 92.14 47.403 92.1387 47.4043 92.1387L47.3057 92.2573Z" fill="#65CEE0"/>
<path d="M5.03594 92.1426C5.03327 92.1426 5.0306 92.1412 5.02926 92.1412C5.03193 92.1412 5.03327 92.1426 5.03594 92.1426ZM5.00127 92.1359C4.99994 92.1359 4.99993 92.1359 4.99993 92.1359C4.99993 92.1359 4.99994 92.1359 5.00127 92.1359ZM4.97061 92.1306C4.96794 92.1306 4.96527 92.1306 4.96393 92.1292C4.96527 92.1306 4.96794 92.1306 4.97061 92.1306ZM4.93594 92.1239H4.9346H4.93594ZM4.90527 92.1186C4.90261 92.1186 4.90127 92.1172 4.8986 92.1172C4.90127 92.1172 4.90261 92.1186 4.90527 92.1186ZM4.87061 92.1119C4.87061 92.1119 4.8706 92.1119 4.86927 92.1119H4.87061ZM4.83994 92.1052C4.83861 92.1052 4.83727 92.1052 4.83594 92.1039C4.83727 92.1052 4.83861 92.1052 4.83994 92.1052Z" fill="#2FB0BB"/>
<path d="M36.6424 97.4043H36.641C36.1944 97.4043 35.761 97.3723 35.3464 97.3056C35.3197 97.3016 35.293 97.2976 35.2663 97.2923L5.06367 92.147C5.05434 92.1456 5.04501 92.143 5.03434 92.1416C5.03167 92.1416 5.03033 92.1403 5.02767 92.1403C5.01833 92.139 5.00901 92.1376 4.99967 92.135C4.99834 92.135 4.99834 92.135 4.99834 92.135C4.98767 92.1336 4.97834 92.131 4.96901 92.1296C4.96634 92.1296 4.96367 92.1296 4.96234 92.1283C4.953 92.127 4.94367 92.1256 4.93434 92.1229H4.93301C4.92234 92.1216 4.91301 92.1189 4.90368 92.1176C4.90101 92.1176 4.89967 92.1163 4.897 92.1163C4.88767 92.1149 4.87834 92.1123 4.86901 92.111H4.86767C4.85834 92.1083 4.84768 92.107 4.83835 92.1043C4.83701 92.1043 4.83567 92.1043 4.83434 92.103C4.81301 92.099 4.79301 92.095 4.77301 92.091C2.16235 91.5283 1.11568 89.6363 1.84235 87.347C1.62102 89.3176 2.82234 90.859 5.30368 91.2803L35.8917 96.4923C36.337 96.5683 36.8037 96.6056 37.285 96.6056C40.6623 96.6056 44.7757 94.8043 47.4023 92.139L47.305 92.2563C47.289 92.2749 47.273 92.2936 47.257 92.3136C47.245 92.327 47.2343 92.3403 47.2223 92.3536C47.2197 92.3576 47.217 92.3603 47.2144 92.363C47.1757 92.4083 47.137 92.4536 47.097 92.499C47.0957 92.5003 47.0957 92.5016 47.0943 92.503C46.9677 92.647 46.837 92.7883 46.701 92.9283C44.117 95.591 40.025 97.3963 36.6637 97.4043C36.657 97.4043 36.6504 97.4043 36.6424 97.4043Z" fill="#E0AB37"/>
<path d="M54.7568 132.514C54.7448 132.483 54.7328 132.452 54.7208 132.422C54.7328 132.452 54.7448 132.483 54.7568 132.514ZM54.7208 132.422C54.7168 132.412 54.7142 132.403 54.7102 132.394C54.7102 132.395 54.7102 132.394 54.7102 132.394C54.7128 132.403 54.7168 132.411 54.7195 132.42L54.7208 132.422ZM54.7075 132.387C54.7048 132.38 54.7021 132.372 54.6995 132.366C54.7021 132.372 54.7048 132.379 54.7075 132.386C54.7075 132.387 54.7075 132.387 54.7075 132.387ZM54.6955 132.355C54.6928 132.35 54.6901 132.343 54.6888 132.338C54.6901 132.342 54.6915 132.346 54.6928 132.35C54.6941 132.352 54.6941 132.354 54.6955 132.355ZM44.9048 105.932C44.9048 105.931 44.9048 105.93 44.9035 105.928C44.9048 105.93 44.9048 105.931 44.9048 105.932ZM44.8888 105.887C44.8888 105.886 44.8875 105.884 44.8875 105.883C44.8875 105.884 44.8888 105.886 44.8888 105.887ZM44.8728 105.842C44.8715 105.84 44.8715 105.839 44.8715 105.838C44.8715 105.839 44.8715 105.84 44.8728 105.842ZM44.8555 105.794C44.8555 105.794 44.8555 105.794 44.8555 105.792C44.8555 105.794 44.8555 105.794 44.8555 105.794Z" fill="#D2A33B"/>
<path d="M58.8235 136.195C57.2302 136.195 55.7022 134.917 54.7555 132.514C54.7435 132.483 54.7315 132.453 54.7195 132.422C55.6288 134.793 57.0955 136.087 58.6435 136.182L58.7462 135.591C59.1142 135.733 59.4929 135.805 59.8755 135.805C60.0635 135.805 60.2515 135.787 60.4409 135.751C59.9075 136.05 59.3622 136.195 58.8235 136.195ZM54.7182 132.421C54.7155 132.411 54.7115 132.403 54.7089 132.394C54.7115 132.403 54.7155 132.411 54.7182 132.421ZM54.7062 132.386C54.7035 132.379 54.7008 132.373 54.6982 132.366C54.7008 132.373 54.7035 132.379 54.7062 132.386ZM54.6915 132.35C54.6902 132.346 54.6888 132.342 54.6875 132.338C54.6888 132.342 54.6902 132.346 54.6915 132.35Z" fill="#D2A33B"/>
<path d="M54.7233 132.422L54.722 132.421C54.7233 132.421 54.7233 132.422 54.7233 132.422ZM54.7127 132.394C54.7127 132.395 54.7127 132.394 54.7127 132.394C54.7113 132.393 54.7113 132.39 54.71 132.387C54.71 132.387 54.71 132.387 54.71 132.386C54.71 132.39 54.7113 132.391 54.7127 132.394ZM54.702 132.366C54.7007 132.362 54.6993 132.359 54.698 132.355C54.6966 132.354 54.6966 132.353 54.6953 132.35C54.698 132.355 54.6993 132.361 54.702 132.366Z" fill="#5FC8D7"/>
<path d="M54.6899 132.338C54.6859 132.327 54.6819 132.318 54.6792 132.309L44.9219 105.975L54.6792 132.309C54.6819 132.318 54.6859 132.329 54.6899 132.338Z" fill="#5FC8D7"/>
<path d="M58.6452 136.182C57.0972 136.087 55.6305 134.792 54.7212 132.422C54.7212 132.422 54.7212 132.42 54.7199 132.42C54.7172 132.411 54.7132 132.403 54.7106 132.394C54.7092 132.391 54.7079 132.39 54.7079 132.386C54.7052 132.379 54.7025 132.372 54.6999 132.366C54.6972 132.36 54.6959 132.355 54.6932 132.35C54.6919 132.346 54.6905 132.342 54.6892 132.338C54.6852 132.328 54.6812 132.318 54.6786 132.308L44.9212 105.975C44.9159 105.96 44.9106 105.947 44.9052 105.932C44.9052 105.931 44.9052 105.93 44.9039 105.928C44.8999 105.915 44.8945 105.902 44.8892 105.887C44.8892 105.886 44.8879 105.884 44.8879 105.883C44.8825 105.87 44.8772 105.855 44.8732 105.842C44.8719 105.84 44.8719 105.839 44.8719 105.838C44.8666 105.823 44.8612 105.808 44.8559 105.794C44.8559 105.794 44.8559 105.794 44.8559 105.792C43.5092 101.954 44.0572 96.831 46.0652 93.7776C44.6225 96.979 44.3812 101.46 45.6479 104.88L55.6332 131.83C56.3745 133.832 57.5012 135.111 58.7479 135.591L58.6452 136.182Z" fill="#D19F32"/>
</svg>
