<svg width="63" height="63" viewBox="0 0 63 63" fill="none" xmlns="http://www.w3.org/2000/svg">
<path d="M18.4185 5.35425C19.2628 0.32995 25.5895 -1.42215 28.8981 2.45203L38.6772 13.9027C39.5924 14.9743 40.8557 15.6896 42.2455 15.9232L57.0954 18.4186C62.1197 19.2629 63.8718 25.5896 59.9976 28.8982L48.547 38.6773C47.4753 39.5925 46.76 40.8558 46.5265 42.2456L44.031 57.0955C43.1867 62.1198 36.8601 63.8719 33.5514 59.9977L23.7723 48.5471C22.8571 47.4754 21.5939 46.7601 20.2041 46.5266L5.35415 44.0311C0.329856 43.1868 -1.42225 36.8602 2.45194 33.5515L13.9026 23.7724C14.9742 22.8572 15.6895 21.594 15.9231 20.2042L18.4185 5.35425Z" fill="#F6C55A"/>
</svg>
